<?xml version="1.0" encoding="UTF-8" standalone="no"?>
<!-- Created with Inkscape (http://www.inkscape.org/) -->

<svg
   width="16.063488mm"
   height="13.635792mm"
   viewBox="0 0 16.063488 13.635792"
   version="1.1"
   id="svg1"
   xmlns="http://www.w3.org/2000/svg"
   xmlns:svg="http://www.w3.org/2000/svg">
  <defs
     id="defs1" />
  <g
     id="layer1"
     style="display:inline;fill:#ffffff;fill-opacity:1;stroke:#000000;stroke-width:0.79375;stroke-dasharray:none;stroke-opacity:1"
     transform="translate(-272.48992,-189.17008)">
    <g
       id="g58"
       transform="matrix(0.8936567,0,0,0.8936567,489.97214,343.10658)"
       style="display:inline;fill:#ffffff;fill-opacity:1;stroke:#000000;stroke-width:0.592136;stroke-dasharray:none;stroke-opacity:1">
      <path
         d="m -231.96654,-171.95646 c -0.51594,0.0132 -1.07639,0.0904 -1.68052,0.23151 -1.11125,0.33514 -1.90038,0.71868 -2.36781,1.15084 -0.47625,0.42333 -1.01414,1.12017 -1.61386,2.09031 -0.18521,0.29986 -0.39236,0.64392 -0.62167,1.03198 -0.95249,1.60513 -2.01083,3.73462 -3.175,6.38927 -0.65263,1.48167 -1.19975,2.73844 -1.64072,3.77031 0.0705,-0.0353 0.14542,-0.0748 0.22479,-0.11885 0.59972,-0.2734 1.5391,-0.66156 2.81792,-1.16427 1.20826,-0.48507 2.54451,-0.88605 4.00854,-1.20355 0.5468,-0.11465 1.68872,-0.34437 3.42614,-0.68833 1.13771,-0.21166 2.28424,-0.39215 3.43959,-0.54208 1.00541,-0.10584 2.00632,-0.19865 3.00291,-0.27802 0.15875,-0.009 0.3131,-0.0175 0.46303,-0.0264 -0.77611,-1.56104 -1.42424,-3.29416 -1.94459,-5.19916 -0.56444,-2.09903 -0.97875,-3.4481 -1.24333,-4.04782 -0.26459,-0.60854 -0.82452,-1.02336 -1.68,-1.24385 -0.42775,-0.11465 -0.89948,-0.16516 -1.41542,-0.15193 z"
         style="fill:#ffffff;fill-opacity:1;stroke:#000000;stroke-width:0.592136;stroke-linecap:round;stroke-linejoin:round;stroke-dasharray:none;stroke-opacity:1"
         id="path3" />
      <path
         d="m -234.80911,-168.42866 v 3.78375 c 0.0529,1.52576 0.31751,2.91892 0.79375,4.1801 h 0.84697 c -0.5468,-1.30528 -0.96573,-2.8615 -1.25677,-4.66948 v 0.0264 z"
         style="fill:#000000;fill-opacity:1;stroke:#000000;stroke-width:0;stroke-dasharray:none;stroke-opacity:1"
         id="path12" />
    </g>
  </g>
</svg>
