<?xml version="1.0" encoding="UTF-8" standalone="no"?>
<!-- Created with Inkscape (http://www.inkscape.org/) -->

<svg
   width="14.073153mm"
   height="14.073149mm"
   viewBox="0 0 14.073153 14.073149"
   version="1.1"
   id="svg1"
   xmlns="http://www.w3.org/2000/svg"
   xmlns:svg="http://www.w3.org/2000/svg">
  <defs
     id="defs1" />
  <g
     id="layer1"
     style="display:inline;fill:#ffffff;fill-opacity:1;stroke:#000000;stroke-width:0.79375;stroke-dasharray:none;stroke-opacity:1"
     transform="translate(-277.20672,-227.81101)">
    <g
       id="g1"
       style="display:inline;fill:#ffffff;fill-opacity:1;stroke:#000000;stroke-width:0.592136;stroke-dasharray:none;stroke-opacity:1"
       transform="matrix(0.89365671,0,0,0.89365671,501.23076,145.16305)">
      <path
         d="m -235.30934,102.27951 c 0.15118,-0.61161 0.2267,-1.25448 0.2267,-1.92794 0,-2.130348 -0.75593,-3.95146 -2.2678,-5.463323 -1.50499,-1.504983 -3.32609,-2.257323 -5.46332,-2.257323 -2.13034,0 -3.95145,0.75234 -5.46332,2.257323 -1.50498,1.511863 -2.25732,3.332975 -2.25732,5.463323 0,0.6872 0.0791,1.34005 0.23717,1.95854 0.32299,1.31257 0.99622,2.48083 2.02015,3.50478 1.51187,1.51185 3.33298,2.26779 5.46332,2.26779 2.13723,0 3.95833,-0.75594 5.46332,-2.26779 1.03769,-1.03082 1.71811,-2.20906 2.0411,-3.53538 z"
         style="display:inline;fill:#ffffff;fill-opacity:1;stroke:#000000;stroke-width:0.296068;stroke-linecap:round;stroke-linejoin:round;stroke-dasharray:none;stroke-dashoffset:0;stroke-opacity:1"
         id="path42-77-1" />
      <path
         d="m -236.59937,101.99643 c 0.12518,-0.52156 0.1877,-1.06979 0.1877,-1.64409 0,-1.816695 -0.62589,-3.369683 -1.87769,-4.658954 -1.24609,-1.283404 -2.75392,-1.924977 -4.5235,-1.924977 -1.76387,0 -3.27171,0.641573 -4.52351,1.924977 -1.2461,1.289271 -1.86901,2.842259 -1.86901,4.658954 0,0.58603 0.0655,1.14276 0.19636,1.67019 0.26743,1.11931 0.82485,2.11557 1.67265,2.98876 1.2518,1.28926 2.75964,1.93391 4.52351,1.93391 1.76958,0 3.27741,-0.64465 4.5235,-1.93391 0.85918,-0.87905 1.42257,-1.88382 1.68999,-3.01486 z"
         style="display:inline;fill:#ffffff;fill-opacity:1;stroke:#000000;stroke-width:0.296068;stroke-linecap:round;stroke-linejoin:round;stroke-dasharray:none;stroke-dashoffset:0;stroke-opacity:1"
         id="path42-77-9-52" />
    </g>
  </g>
</svg>
