<?xml version="1.0" encoding="UTF-8" standalone="no"?>
<!-- Created with Inkscape (http://www.inkscape.org/) -->

<svg
   width="18.250666mm"
   height="18.250666mm"
   viewBox="0 0 18.250666 18.250666"
   version="1.1"
   id="svg1"
   xmlns="http://www.w3.org/2000/svg"
   xmlns:svg="http://www.w3.org/2000/svg">
  <defs
     id="defs1" />
  <g
     id="layer1"
     style="display:inline;fill:#ffffff;fill-opacity:1;stroke:#000000;stroke-width:0.79375;stroke-dasharray:none;stroke-opacity:1"
     transform="translate(-275.11796,-225.72225)">
    <g
       id="g50"
       transform="matrix(0.8936567,0,0,0.8936567,483.84487,193.57704)"
       style="display:inline;fill:#ffffff;fill-opacity:1;stroke:#000000;stroke-width:0.592136;stroke-dasharray:none;stroke-opacity:1">
      <path
         d="m -213.72953,48.649201 c 0.19403,-0.78493 0.29094,-1.60997 0.29094,-2.47427 0,-2.73402 -0.97014,-5.07118 -2.91042,-7.01146 -1.93146,-1.93145 -4.26861,-2.89698 -7.01146,-2.89698 -2.73402,0 -5.07118,0.96553 -7.01146,2.89698 -1.93145,1.94028 -2.89698,4.27744 -2.89698,7.01146 0,0.88194 0.10153,1.71979 0.30438,2.51354 0.41451,1.68451 1.27851,3.18382 2.5926,4.49792 1.94028,1.94027 4.27744,2.91042 7.01146,2.91042 2.74285,0 5.08,-0.97015 7.01146,-2.91042 1.33174,-1.32292 2.20497,-2.83504 2.61948,-4.53719 z"
         style="fill:#ffffff;fill-opacity:1;stroke:#000000;stroke-width:0.592136;stroke-linecap:round;stroke-linejoin:round;stroke-dasharray:none;stroke-opacity:1"
         id="path42" />
      <path
         d="m -215.85457,48.104362 c 0.15118,-0.611616 0.2267,-1.254486 0.2267,-1.927948 0,-2.130344 -0.75593,-3.951456 -2.2678,-5.463319 -1.50499,-1.504983 -3.32609,-2.257323 -5.46332,-2.257323 -2.13034,0 -3.95145,0.75234 -5.46332,2.257323 -1.50498,1.511863 -2.25732,3.332975 -2.25732,5.463319 0,0.687207 0.0791,1.340058 0.23717,1.958547 0.32299,1.312568 0.99622,2.480828 2.02015,3.504773 1.51187,1.511856 3.33298,2.267795 5.46332,2.267795 2.13723,0 3.95833,-0.755939 5.46332,-2.267795 1.03769,-1.030817 1.71811,-2.209059 2.0411,-3.535372 z"
         style="fill:#ffffff;fill-opacity:1;stroke:#000000;stroke-width:0.296068;stroke-linecap:round;stroke-linejoin:round;stroke-dasharray:none;stroke-dashoffset:0;stroke-opacity:1"
         id="path42-77" />
      <path
         d="m -217.1446,47.821282 c 0.12518,-0.521568 0.1877,-1.069789 0.1877,-1.644096 0,-1.816693 -0.62589,-3.369681 -1.87769,-4.658952 -1.24609,-1.283404 -2.75392,-1.924977 -4.5235,-1.924977 -1.76387,0 -3.27171,0.641573 -4.52351,1.924977 -1.2461,1.289271 -1.86901,2.842259 -1.86901,4.658952 0,0.586028 0.0655,1.14276 0.19636,1.67019 0.26743,1.119316 0.82485,2.115574 1.67265,2.988763 1.2518,1.289263 2.75964,1.933906 4.52351,1.933906 1.76958,0 3.27741,-0.644643 4.5235,-1.933906 0.85918,-0.879049 1.42257,-1.883818 1.68999,-3.014857 z"
         style="fill:#ffffff;fill-opacity:1;stroke:#000000;stroke-width:0.296068;stroke-linecap:round;stroke-linejoin:round;stroke-dasharray:none;stroke-dashoffset:0;stroke-opacity:1"
         id="path42-77-9" />
    </g>
  </g>
</svg>
