<?xml version="1.0" encoding="UTF-8" standalone="no"?>
<!-- Created with Inkscape (http://www.inkscape.org/) -->

<svg
   width="10.868985mm"
   height="10.919302mm"
   viewBox="0 0 10.868985 10.919302"
   version="1.1"
   id="svg1"
   xmlns="http://www.w3.org/2000/svg"
   xmlns:svg="http://www.w3.org/2000/svg">
  <defs
     id="defs1" />
  <g
     id="layer1"
     style="display:inline;fill:#ffffff;fill-opacity:1;stroke:#000000;stroke-width:0.79375;stroke-dasharray:none;stroke-opacity:1"
     transform="translate(-351.81746,-228.73836)">
    <g
       id="g44"
       transform="matrix(0.8936567,0,0,0.8936567,669.00806,69.86866)"
       style="display:inline;fill:#ffffff;fill-opacity:1;stroke:#000000;stroke-width:0.592136;stroke-dasharray:none;stroke-opacity:1">
      <path
         stroke="#ffffff"
         stroke-width="3"
         stroke-linejoin="bevel"
         stroke-linecap="square"
         fill="none"
         d="m 217.25,-35.45 q 1.25,1.05 2.6,1.9 0.3,0.2 0.6,0.4 6.4,3.8 14.2,2.85 8.35,-1.3 13.45,-7.4 0.9,-1.1 1.7,-2.35 5.6,-8.6 2.6,-18.5 -3,-9.85 -12.5,-13.75 -9.45,-3.9 -18.5,0.8 -9.15,4.85 -11.2,15 -1.65,8.15 2.15,14.95 1,1.75 2.35,3.45 0.15,0.2 0.35,0.4 0.6,0.7 1.2,1.35"
         id="path159-54-7-0"
         style="fill:#ffffff;fill-opacity:1;stroke:#000000;stroke-width:2.238;stroke-dasharray:none;stroke-opacity:1"
         transform="matrix(0.264583,0,0,0.264583,-410.12389,197.66456)" />
      <path
         d="m -351.44843,180.86073 c -0.0265,0.009 -0.0485,0.0134 -0.0661,0.0134 -0.0265,0 -0.0444,0.009 -0.0532,0.0264 0,0.0265 0.005,0.0485 0.0134,0.0661 0.009,0.0177 0.0221,0.0351 0.0398,0.0527 0.30868,0.46743 0.61275,0.93045 0.91261,1.38907 0.29104,0.45861 0.591,0.92163 0.89968,1.38906 l -1.78593,2.63291 c -0.0353,0.0353 -0.0619,0.0748 -0.0796,0.11886 -0.0265,0.0441 -0.0485,0.0841 -0.0661,0.11937 -0.009,0.009 -0.0129,0.0216 -0.0129,0.0393 0,0.0177 0.009,0.0356 0.0264,0.0532 0.0177,0.009 0.0356,0.0129 0.0532,0.0129 l 1.42834,0.0398 c 0.0529,0 0.097,-0.0133 0.13229,-0.0398 0.0353,-0.0265 0.0619,-0.0613 0.0796,-0.10542 l 1.07177,-1.5875 1.08469,1.64021 c 0.0265,0.0441 0.0572,0.0795 0.0925,0.10594 0.0353,0.0265 0.0747,0.0439 0.11885,0.0527 l 1.42886,0.0264 c 0.0441,0 0.0661,-0.0174 0.0661,-0.0527 0.009,-0.0265 0.005,-0.0531 -0.0129,-0.0796 -0.0177,-0.0353 -0.0356,-0.0701 -0.0532,-0.10542 l -1.87844,-2.83135 1.83865,-2.69854 c 0.0265,-0.0353 0.0398,-0.066 0.0398,-0.0925 0,-0.0177 -0.009,-0.031 -0.0264,-0.0398 -0.0177,-0.009 -0.0397,-0.0134 -0.0661,-0.0134 -0.0265,-0.009 -0.0531,-0.0129 -0.0796,-0.0129 h -0.0791 l -1.24385,-0.0398 c -0.10583,0 -0.18531,0.0528 -0.23823,0.15865 l -0.99219,1.44177 -0.97875,-1.49448 c -0.0529,-0.10584 -0.12779,-0.15865 -0.22479,-0.15865 z"
         style="fill:#000000;fill-opacity:1;stroke:#000000;stroke-width:0;stroke-dasharray:none;stroke-opacity:1"
         id="path16" />
    </g>
  </g>
</svg>
