<?xml version="1.0" encoding="UTF-8" standalone="no"?>
<!-- Created with Inkscape (http://www.inkscape.org/) -->

<svg
   width="10.868985mm"
   height="10.919302mm"
   viewBox="0 0 10.868985 10.919302"
   version="1.1"
   id="svg1"
   xmlns="http://www.w3.org/2000/svg"
   xmlns:svg="http://www.w3.org/2000/svg">
  <defs
     id="defs1" />
  <g
     id="layer1"
     style="display:inline;fill:#ffffff;fill-opacity:1;stroke:#000000;stroke-width:0.79375;stroke-dasharray:none;stroke-opacity:1"
     transform="translate(-374.4497,-227.85269)">
    <g
       id="g60"
       transform="matrix(0.8936567,0,0,0.8936567,489.97214,343.10658)"
       style="display:inline;fill:#ffffff;fill-opacity:1;stroke:#000000;stroke-width:0.592136;stroke-dasharray:none;stroke-opacity:1">
      <path
         stroke="#ffffff"
         stroke-width="3"
         stroke-linejoin="bevel"
         stroke-linecap="square"
         fill="none"
         d="m 217.25,-35.45 q 1.25,1.05 2.6,1.9 0.3,0.2 0.6,0.4 6.4,3.8 14.2,2.85 8.35,-1.3 13.45,-7.4 0.9,-1.1 1.7,-2.35 5.6,-8.6 2.6,-18.5 -3,-9.85 -12.5,-13.75 -9.45,-3.9 -18.5,0.8 -9.15,4.85 -11.2,15 -1.65,8.15 2.15,14.95 1,1.75 2.35,3.45 0.15,0.2 0.35,0.4 0.6,0.7 1.2,1.35"
         id="path159-54-7-5"
         style="fill:#ffffff;fill-opacity:1;stroke:#000000;stroke-width:2.238;stroke-dasharray:none;stroke-opacity:1"
         transform="matrix(0.264583,0,0,0.264583,-184.45763,-109.07917)" />
      <path
         d="m -124.92472,-125.84641 c -0.0347,0.002 -0.0623,0.0154 -0.0822,0.0419 -0.0353,0.0265 -0.0527,0.0706 -0.0527,0.13229 v 5.55625 c 0,0.0617 0.0174,0.10583 0.0527,0.13229 0.0353,0.0265 0.0753,0.0439 0.11937,0.0527 l 2.88406,0.0661 c 0.23813,0.009 0.46271,-0.0353 0.67438,-0.13229 0.20285,-0.0794 0.38386,-0.19834 0.5426,-0.35709 0.15876,-0.15875 0.28643,-0.34847 0.38344,-0.56895 0.097,-0.21167 0.14573,-0.43625 0.14573,-0.67438 0,-0.27341 -0.0574,-0.53389 -0.17208,-0.78083 -0.11466,-0.24695 -0.269,-0.46282 -0.46302,-0.64802 0.11465,-0.12348 0.20285,-0.2732 0.26458,-0.44959 0.0706,-0.15875 0.10594,-0.33975 0.10594,-0.5426 0,-0.23812 -0.0487,-0.46323 -0.14573,-0.6749 -0.0882,-0.22048 -0.20715,-0.40097 -0.35709,-0.54208 -0.15875,-0.16757 -0.34386,-0.29986 -0.55552,-0.39688 -0.20285,-0.0882 -0.42334,-0.1369 -0.66146,-0.14572 l -2.64583,-0.0661 c -0.0132,-0.002 -0.0256,-0.003 -0.0372,-0.002 z m 1.41284,1.20613 0.84697,0.0264 c 0.0882,0 0.17178,0.018 0.25115,0.0532 0.0706,0.0265 0.13208,0.066 0.185,0.11886 0.0529,0.0617 0.097,0.12326 0.1323,0.185 0.0265,0.0705 0.0398,0.14542 0.0398,0.22479 0,0.0882 -0.0174,0.16768 -0.0527,0.23823 -0.0265,0.0705 -0.0665,0.1326 -0.11938,0.18552 -0.0529,0.0441 -0.11907,0.0836 -0.19843,0.11886 -0.0706,0.0177 -0.14952,0.0263 -0.23772,0.0263 l -0.84697,-0.0263 z m 0,2.2226 1.04541,0.0393 c 0.0882,-0.009 0.17177,0.009 0.25115,0.0532 0.0706,0.0441 0.1367,0.0969 0.19844,0.15864 0.0529,0.0706 0.0924,0.14542 0.11885,0.22479 0.0353,0.0706 0.0532,0.14593 0.0532,0.22531 0,0.0882 -0.018,0.17639 -0.0532,0.26459 -0.0265,0.0794 -0.0659,0.14551 -0.11885,0.19843 -0.0617,0.0617 -0.12789,0.10994 -0.19844,0.14522 -0.0794,0.0353 -0.16295,0.0573 -0.25115,0.0661 l -1.04541,-0.0398 z"
         style="fill:#000000;fill-opacity:1;stroke:#000000;stroke-width:0;stroke-dasharray:none;stroke-opacity:1"
         id="path18"
         transform="translate(-7.6931107e-6)" />
    </g>
  </g>
</svg>
