<?xml version="1.0" encoding="UTF-8" standalone="no"?>
<!-- Created with Inkscape (http://www.inkscape.org/) -->

<svg
   width="7.2679009mm"
   height="7.2678919mm"
   viewBox="0 0 7.2679009 7.2678919"
   version="1.1"
   id="svg1"
   xmlns="http://www.w3.org/2000/svg"
   xmlns:svg="http://www.w3.org/2000/svg">
  <defs
     id="defs1" />
  <g
     id="layer1"
     style="display:inline;fill:#ffffff;fill-opacity:1;stroke:#000000;stroke-width:0.79375;stroke-dasharray:none;stroke-opacity:1"
     transform="translate(-334.36421,-230.92436)">
    <g
       id="g52"
       transform="matrix(0.8936567,0,0,0.8936567,725.56905,55.94975)"
       style="display:inline;fill:#ffffff;fill-opacity:1;stroke:#000000;stroke-width:0.592136;stroke-dasharray:none;stroke-opacity:1">
      <path
         d="m -433.69103,196.09229 c -1.04068,0 -1.92674,0.37073 -2.65875,1.11156 -0.74083,0.73201 -1.11156,1.61806 -1.11156,2.65875 0,1.0407 0.37073,1.93136 1.11156,2.67219 0.73201,0.73201 1.61807,1.09812 2.65875,1.09812 1.04071,0 1.93188,-0.36611 2.67271,-1.09812 0.73201,-0.74083 1.09761,-1.63149 1.09761,-2.67219 0,-1.04069 -0.3656,-1.92674 -1.09761,-2.65875 -0.74083,-0.74083 -1.632,-1.11156 -2.67271,-1.11156 z"
         style="fill:#ffffff;fill-opacity:1;stroke:#000000;stroke-width:0.592136;stroke-dasharray:none;stroke-opacity:1"
         id="path34-0" />
      <path
         stroke="#ffffff"
         stroke-width="0.529166"
         stroke-linejoin="round"
         stroke-linecap="butt"
         fill="none"
         d="m -435.48357,201.04 h 3.5851 m -3.5851,-1.17739 h 3.5851 m -3.5851,-1.1774 h 3.5851"
         id="path157-25-1"
         style="fill:#ffffff;fill-opacity:1;stroke:#000000;stroke-width:0.592136;stroke-dasharray:none;stroke-opacity:1"
         transform="translate(1.4686848e-6,1.0490606e-5)" />
    </g>
  </g>
</svg>
