<?xml version="1.0" encoding="UTF-8" standalone="no"?>
<!-- Created with Inkscape (http://www.inkscape.org/) -->

<svg
   width="10.868985mm"
   height="10.919302mm"
   viewBox="0 0 10.868985 10.919302"
   version="1.1"
   id="svg1"
   xmlns="http://www.w3.org/2000/svg"
   xmlns:svg="http://www.w3.org/2000/svg">
  <defs
     id="defs1" />
  <g
     id="layer1"
     style="display:inline;fill:#ffffff;fill-opacity:1;stroke:#000000;stroke-width:0.79375;stroke-dasharray:none;stroke-opacity:1"
     transform="translate(-362.80497,-238.39776)">
    <g
       id="g43"
       transform="matrix(0.8936567,0,0,0.8936567,669.00806,69.86866)"
       style="display:inline;fill:#ffffff;fill-opacity:1;stroke:#000000;stroke-width:0.592136;stroke-dasharray:none;stroke-opacity:1">
      <path
         stroke="#ffffff"
         stroke-width="3"
         stroke-linejoin="bevel"
         stroke-linecap="square"
         fill="none"
         d="m 217.25,-35.45 q 1.25,1.05 2.6,1.9 0.3,0.2 0.6,0.4 6.4,3.8 14.2,2.85 8.35,-1.3 13.45,-7.4 0.9,-1.1 1.7,-2.35 5.6,-8.6 2.6,-18.5 -3,-9.85 -12.5,-13.75 -9.45,-3.9 -18.5,0.8 -9.15,4.85 -11.2,15 -1.65,8.15 2.15,14.95 1,1.75 2.35,3.45 0.15,0.2 0.35,0.4 0.6,0.7 1.2,1.35"
         id="path159-54-7-1"
         style="fill:#ffffff;fill-opacity:1;stroke:#000000;stroke-width:2.238;stroke-dasharray:none;stroke-opacity:1"
         transform="matrix(0.264583,0,0,0.264583,-397.82889,208.47341)" />
      <path
         d="m -337.06843,191.73552 c -0.0265,0 -0.0485,0.004 -0.0661,0.0129 -0.0265,0.009 -0.0485,0.0221 -0.0661,0.0398 -0.0265,0.009 -0.0444,0.0262 -0.0532,0.0527 l -0.0393,0.0398 -2.15645,5.60947 c -0.0177,0.0529 -0.0136,0.0924 0.0129,0.11886 0.0353,0.0265 0.0794,0.0398 0.13229,0.0398 h 1.1777 c 0.097,0 0.16317,-0.0487 0.19844,-0.14573 0.0529,-0.13229 0.10575,-0.26869 0.15865,-0.40979 0.0529,-0.1323 0.10165,-0.26458 0.14573,-0.39688 h 2.11666 c 0.0529,0.1323 0.10575,0.26458 0.15865,0.39688 0.0441,0.1411 0.0923,0.2775 0.14521,0.40979 0.0177,0.0529 0.0443,0.0883 0.0796,0.10594 0.0353,0.0265 0.084,0.0398 0.14573,0.0398 h 1.1374 c 0.0794,0 0.13218,-0.018 0.15864,-0.0532 0.0265,-0.0353 0.0311,-0.0794 0.0134,-0.13229 l -2.19625,-5.60896 c -0.0177,-0.0265 -0.0438,-0.0531 -0.0791,-0.0796 -0.0265,-0.0265 -0.0618,-0.0393 -0.10594,-0.0393 z m 0.50281,1.85208 0.60823,1.82521 h -1.21698 c 0.0529,-0.13229 0.10165,-0.2774 0.14573,-0.43615 0.0529,-0.15875 0.10574,-0.3177 0.15864,-0.47646 0.0529,-0.15874 0.10575,-0.31308 0.15865,-0.46302 0.0529,-0.15874 0.10165,-0.30847 0.14573,-0.44958 z"
         style="fill:#000000;fill-opacity:1;stroke:#000000;stroke-width:0;stroke-dasharray:none;stroke-opacity:1"
         id="path19" />
    </g>
  </g>
</svg>
