<?xml version="1.0" encoding="UTF-8" standalone="no"?>
<!-- Created with Inkscape (http://www.inkscape.org/) -->

<svg
   width="13.229167mm"
   height="13.229167mm"
   viewBox="0 0 13.229167 13.229167"
   version="1.1"
   id="svg1"
   xmlns="http://www.w3.org/2000/svg"
   xmlns:svg="http://www.w3.org/2000/svg">
  <defs
     id="defs1" />
  <g
     id="layer1"
     style="display:inline;fill:#ffffff;fill-opacity:1;stroke:#000000;stroke-width:0.79375;stroke-dasharray:none;stroke-opacity:1"
     transform="translate(-319.46637,-211.72932)">
    <g
       id="g48"
       transform="matrix(0.8936567,0,0,0.8936567,615.51895,48.05764)"
       style="display:inline;fill:#ffffff;fill-opacity:1;stroke:#000000;stroke-width:0.592136;stroke-dasharray:none;stroke-opacity:1">
      <path
         d="m -316.98994,192.31665 c 0.13892,-0.56198 0.2083,-1.15268 0.2083,-1.77149 0,-1.95745 -0.69458,-3.63077 -2.08375,-5.01993 -1.38285,-1.38286 -3.05617,-2.07414 -5.01994,-2.07414 -1.95746,0 -3.63078,0.69128 -5.01994,2.07414 -1.38286,1.38916 -2.07414,3.06248 -2.07414,5.01993 0,0.63144 0.0727,1.23131 0.21793,1.7996 0.29678,1.20605 0.91536,2.2795 1.85621,3.22034 1.38916,1.38917 3.06248,2.08376 5.01994,2.08376 1.96377,0 3.63709,-0.69459 5.01994,-2.08376 0.95347,-0.94715 1.57867,-2.02977 1.87545,-3.24845 z"
         style="fill:#ffffff;fill-opacity:1;stroke:#000000;stroke-width:0.60564;stroke-linecap:round;stroke-linejoin:round;stroke-dasharray:none;stroke-opacity:1"
         id="path42-7" />
      <g
         id="g47"
         transform="translate(38.418667,-11.323696)"
         style="fill:#ffffff;fill-opacity:1;stroke:#000000;stroke-width:0.296068;stroke-dasharray:none;stroke-opacity:1">
        <path
           d="m -362.30538,195.42448 c 0.76729,0 1.49028,0.11896 2.16938,0.35708 -0.11465,0.0353 -0.22951,0.0707 -0.34416,0.10594 -0.71438,0.24695 -1.30046,0.51563 -1.75907,0.80667 h -0.0134 c -0.10583,0.0705 -0.21146,0.0705 -0.31729,0 -0.46743,-0.29104 -1.05403,-0.55972 -1.75958,-0.80667 h -0.0134 l -0.22479,-0.0662 c 0.69674,-0.26458 1.45101,-0.39687 2.26239,-0.39687 z m -4.77593,2.10323 0.10594,0.0269 h -0.0264 c 0.22931,0.0617 0.43646,0.14069 0.62167,0.23771 0.15874,0.0882 0.3659,0.22511 0.62167,0.41031 0.23812,0.18521 0.40579,0.33084 0.50281,0.43667 0.14992,0.17639 0.18069,0.33073 0.0925,0.46302 -0.71438,0.83785 -1.33174,1.71108 -1.85209,2.61948 -0.58208,0.9966 -0.97895,1.92674 -1.19062,2.79104 -0.3616,-0.80257 -0.5426,-1.68452 -0.5426,-2.64583 0,-1.67569 0.55583,-3.12218 1.66708,-4.33927 z m 4.67,3.66438 c 0.0529,0 0.10112,0.018 0.14521,0.0532 1.12889,0.83784 2.04622,1.71107 2.75177,2.61948 1.09361,1.39347 1.56996,2.33694 1.42885,2.83084 -0.009,0.009 -0.0129,0.0221 -0.0129,0.0398 -1.1818,1.05833 -2.5842,1.5875 -4.20698,1.5875 -1.71979,0 -3.19705,-0.59121 -4.43177,-1.77302 -0.0353,-0.51153 0.44109,-1.4022 1.42886,-2.67219 0.74965,-0.97014 1.6757,-1.84747 2.77812,-2.6324 0,-0.005 0.002,-0.009 0.005,-0.0114 0.002,-0.001 0.005,-0.002 0.008,-0.002 0.0265,-0.0265 0.0619,-0.0398 0.10594,-0.0398 z"
           style="fill:#ffffff;fill-opacity:1;stroke:#000000;stroke-width:0.296068;stroke-dasharray:none;stroke-opacity:1"
           id="path14" />
        <path
           d="m -359.38566,196.11229 c 10e-4,-1.3e-4 0.003,0 0.004,0 0.48507,0.23812 0.93937,0.55143 1.36271,0.93948 -0.22931,0.0617 -0.44518,0.14531 -0.64802,0.25115 l -0.0134,0.0134 c -0.19403,0.10584 -0.42323,0.26018 -0.68781,0.46302 -0.29104,0.22049 -0.48538,0.39227 -0.5824,0.51574 -0.37924,0.42333 -0.41,0.80687 -0.0925,1.15083 0.68792,0.83785 1.28785,1.68441 1.79938,2.5399 0.74083,1.28763 1.16847,2.45621 1.28312,3.50573 -0.17639,0.24694 -0.37482,0.48537 -0.59531,0.71468 -0.13229,-0.635 -0.64402,-1.52566 -1.53479,-2.67219 -0.74083,-0.94368 -1.69765,-1.85229 -2.87063,-2.72541 -0.14111,-0.097 -0.29083,-0.14573 -0.44958,-0.14573 -0.16757,0 -0.31319,0.0487 -0.43667,0.14573 h 0.0134 c -1.14653,0.81139 -2.11257,1.7241 -2.8975,2.73833 -0.82021,1.04951 -1.31399,1.88736 -1.48156,2.51354 -0.21167,-0.24694 -0.39678,-0.49819 -0.55552,-0.75396 h -0.0134 c -0.009,-0.0177 -0.0175,-0.0351 -0.0264,-0.0527 0.14994,-0.9966 0.56886,-2.08621 1.25678,-3.26801 0.51152,-0.87313 1.11145,-1.71969 1.79937,-2.5399 h -0.0134 c 0.3175,-0.34396 0.28674,-0.7275 -0.0925,-1.15083 h 0.0129 c -0.10583,-0.12347 -0.30427,-0.29525 -0.59531,-0.51574 -0.2734,-0.20284 -0.5026,-0.35308 -0.68781,-0.4501 -0.15875,-0.0882 -0.33514,-0.16305 -0.52917,-0.22479 0.42333,-0.38805 0.87302,-0.71007 1.34927,-0.96583 l 0.80719,0.25166 c 0.66146,0.22931 1.21268,0.48056 1.65364,0.75396 h -0.0134 c 0.29986,0.19403 0.59982,0.19403 0.89968,0 0.43215,-0.2734 0.98337,-0.52465 1.65365,-0.75396 0.33514,-0.11465 0.63049,-0.20284 0.88625,-0.26458 0.0155,-0.008 0.0275,-0.0125 0.0362,-0.0134 z m 1.81591,1.38907 c 1.14653,1.21708 1.71979,2.67229 1.71979,4.36562 0,1.06715 -0.2292,2.04191 -0.68781,2.92385 -0.19403,-0.94368 -0.60833,-1.96714 -1.24333,-3.06958 -0.52035,-0.89076 -1.13771,-1.76347 -1.85209,-2.61896 h -0.0134 c -0.0882,-0.13229 -0.0574,-0.28663 0.0925,-0.46302 h 0.0134 c 0.0882,-0.10583 0.25125,-0.25146 0.48938,-0.43667 0.23813,-0.1852 0.44528,-0.32621 0.62167,-0.42323 h 0.0134 c 0.26458,-0.14111 0.5466,-0.23392 0.84646,-0.27801 z"
           style="fill:#ffffff;fill-opacity:1;stroke:#000000;stroke-width:0.296068;stroke-dasharray:none;stroke-opacity:1"
           id="path13" />
      </g>
    </g>
  </g>
</svg>
