<?xml version="1.0" encoding="UTF-8" standalone="no"?>
<!-- Created with Inkscape (http://www.inkscape.org/) -->

<svg
   width="7.2679009mm"
   height="7.2678919mm"
   viewBox="0 0 7.2679009 7.2678919"
   version="1.1"
   id="svg1"
   xmlns="http://www.w3.org/2000/svg"
   xmlns:svg="http://www.w3.org/2000/svg">
  <defs
     id="defs1" />
  <g
     id="layer1"
     style="display:inline;fill:#ffffff;fill-opacity:1;stroke:#000000;stroke-width:0.79375;stroke-dasharray:none;stroke-opacity:1"
     transform="translate(-310.35485,-230.92435)">
    <g
       id="g53"
       transform="matrix(0.8936567,0,0,0.8936567,572.57299,95.71212)"
       style="display:inline;fill:#ffffff;fill-opacity:1;stroke:#000000;stroke-width:0.592136;stroke-dasharray:none;stroke-opacity:1">
      <path
         d="m -292.52786,162.85616 c -1.04069,0 -1.92674,0.37073 -2.65875,1.11156 -0.74083,0.73201 -1.11156,1.61806 -1.11156,2.65875 0,1.0407 0.37073,1.93136 1.11156,2.67219 0.73201,0.73201 1.61806,1.09812 2.65875,1.09812 1.0407,0 1.93188,-0.36611 2.67271,-1.09812 0.73201,-0.74083 1.09761,-1.63149 1.09761,-2.67219 0,-1.04069 -0.3656,-1.92674 -1.09761,-2.65875 -0.74083,-0.74083 -1.63201,-1.11156 -2.67271,-1.11156 z"
         style="fill:#ffffff;fill-opacity:1;stroke:#000000;stroke-width:0.592136;stroke-dasharray:none;stroke-opacity:1"
         id="path34"
         transform="translate(3.1726772,-11.257886)" />
      <g
         id="g51"
         transform="translate(167.98939,-50.769816)"
         style="fill:#ffffff;fill-opacity:1;stroke:#000000;stroke-width:0.592136;stroke-dasharray:none;stroke-opacity:1">
        <path
           d="m -457.89363,205.7679 v 1.71979 h 2.19625 v -1.71979 z"
           style="fill:#ffffff;fill-opacity:1;stroke:#000000;stroke-width:0.592136;stroke-linecap:round;stroke-linejoin:round;stroke-dasharray:none;stroke-opacity:1"
           id="path15" />
        <path
           d="m -458.99175,204.78915 v 1.71979 h 1.04076 v -0.74104 h 1.15549 v -0.97875 z"
           style="fill:#ffffff;fill-opacity:1;stroke:#000000;stroke-width:0.592136;stroke-linecap:round;stroke-linejoin:round;stroke-dasharray:none;stroke-opacity:1"
           id="path51" />
      </g>
    </g>
  </g>
</svg>
