<?xml version="1.0" encoding="UTF-8" standalone="no"?>
<svg
   version="1.1"
   id="svg344"
   width="64"
   height="64"
   xmlns="http://www.w3.org/2000/svg"
   xmlns:svg="http://www.w3.org/2000/svg">
  <defs
     id="defs1" />
  <g
     id="g357"
     transform="translate(-486.52632,-598.80702)"
     style="fill:#ffffff;fill-opacity:1">
    <path
       stroke="none"
       fill="#333333"
       d="m 498.52632,606.80702 h 40 q 1.65,0 2.85,1.2 1.15,1.15 1.15,2.8 v 40 q 0,1.65 -1.15,2.8 -1.2,1.2 -2.85,1.2 h -40 q -1.65,0 -2.85,-1.2 -1.15,-1.15 -1.15,-2.8 v -40 q 0,-1.65 1.15,-2.8 1.2,-1.2 2.85,-1.2 m 0,44 h 40 v -40 h -40 v 40"
       id="path145"
       style="fill:#ffffff;fill-opacity:1" />
    <path
       stroke="none"
       fill="#333333"
       d="m 534.52632,628.80702 h 16 v 4 h -16 v -4 m -14,-30 v 16 h -4 v -16 h 4 m -34,30 h 16 v 4 h -16 v -4 m 34,18 v 16 h -4 v -16 h 4"
       id="path146"
       style="fill:#ffffff;fill-opacity:1" />
  </g>
</svg>
