<?xml version="1.0" encoding="UTF-8" standalone="no"?>
<svg
   version="1.1"
   id="svg344"
   width="64"
   height="64"
   xmlns="http://www.w3.org/2000/svg"
   xmlns:svg="http://www.w3.org/2000/svg">
  <defs
     id="defs1" />
  <g
     id="g365"
     transform="translate(-900.52632,-391.80702)"
     style="fill:#ffffff;fill-opacity:1">
    <path
       stroke="none"
       fill="#333333"
       d="m 930.52632,421.80702 h 4 v 4 h -4 v -4 m 4,30 v 4 h -4 v -4 h 4 m 0,-60 v 4 h -4 v -4 h 4"
       id="path25"
       style="fill:#ffffff;fill-opacity:1" />
    <path
       stroke="none"
       fill="#333333"
       d="m 940.52632,421.80702 h 24 v 4 h -24 v -4 m -40,0 h 24 v 4 h -24 v -4"
       id="path26"
       style="fill:#ffffff;fill-opacity:1" />
    <path
       stroke="none"
       fill="#333333"
       d="m 950.92632,442.20702 q 5.1,-5.1 6.8,-11.65 l 3.85,1 q -1.95,7.55 -7.85,13.45 -5.9,5.9 -13.45,7.85 -3.65,0.95 -7.75,0.95 -4.15,0 -7.85,-0.95 -7.5,-1.95 -13.35,-7.8 l -0.05,-0.05 q -5.85,-5.85 -7.8,-13.4 l 3.9,-1.05 q 1.65,6.55 6.75,11.65 5.05,5.05 11.6,6.75 l 6.8,0.85 q 3.55,0 6.7,-0.8 6.6,-1.7 11.7,-6.8 m 0,-36.8 q -5.1,-5.1 -11.7,-6.8 l -6.7,-0.8 q -3.55,0 -6.75,0.85 -6.55,1.65 -11.65,6.75 -5.1,5.1 -6.8,11.7 l -3.85,-1.05 q 1.9,-7.6 7.8,-13.5 5.9,-5.85 13.45,-7.8 3.7,-0.95 7.8,-0.95 4.05,0 7.75,0.95 7.55,1.9 13.45,7.8 l 0.05,0.05 q 5.85,5.85 7.8,13.4 l -3.85,1.05 q -1.7,-6.55 -6.8,-11.65"
       id="path27"
       style="fill:#ffffff;fill-opacity:1" />
  </g>
</svg>
