<?xml version="1.0" encoding="UTF-8" standalone="no"?>
<svg
   version="1.1"
   id="svg344"
   width="59.999981"
   height="52.099998"
   xmlns="http://www.w3.org/2000/svg"
   xmlns:svg="http://www.w3.org/2000/svg">
  <defs
     id="defs1" />
  <path
     stroke="none"
     fill="#333333"
     d="m 11.6,44.45 q 2.5,2.5 5.4,4.2 L 15,52.1 Q 11.65,50.15 8.75,47.25 5.9,44.4 3.95,41.1 0,34.4 0,26.05 0,17.7 3.95,11 5.85,7.7 8.75,4.8 11.65,1.9 14.95,0 l 2,3.5 Q 14.1,5.15 11.6,7.65 9.1,10.15 7.45,13.05 4,18.8 4,26.05 4,33.3 7.45,39.1 9.1,41.95 11.6,44.45 M 48.39998,7.65 q -2.5,-2.5 -5.35,-4.15 l 2,-3.5 q 3.25,1.9 6.15,4.8 2.9,2.9 4.85,6.25 3.95,6.65 3.95,15 0,8.35 -3.95,15.05 -1.95,3.25 -4.85,6.15 -2.9,2.9 -6.15,4.85 l -2,-3.45 q 2.85,-1.7 5.35,-4.2 2.5,-2.5 4.2,-5.35 3.4,-5.8 3.4,-13.05 0,-7.25 -3.4,-13 -1.7,-2.9 -4.2,-5.4 m -16.4,18.4 q 0,0.8 -0.65,1.35 -0.55,0.65 -1.35,0.65 -0.8,0 -1.45,-0.65 Q 28,26.85 28,26.05 q 0,-0.8 0.54998,-1.45 0.65,-0.55 1.45,-0.55 0.8,0 1.35,0.55 0.65,0.65 0.65,1.45"
     id="path74"
     style="fill:#ffffff;fill-opacity:1" />
</svg>
