<?xml version="1.0" encoding="UTF-8" standalone="no"?>
<svg
   version="1.1"
   id="svg344"
   width="56"
   height="56"
   xmlns="http://www.w3.org/2000/svg"
   xmlns:svg="http://www.w3.org/2000/svg">
  <defs
     id="defs1" />
  <path
     stroke="none"
     fill="#333333"
     d="M 52,56 H 4 Q 2.35,56 1.15,54.8 0,53.65 0,52 V 4 Q 0,2.35 1.15,1.2 2.35,0 4,0 H 52 Q 53.65,0 54.85,1.2 56,2.35 56,4 v 48 q 0,1.65 -1.15,2.8 Q 53.65,56 52,56 M 14,26 v 4 H 4 V 52 H 26 V 42 h 4 V 52 H 52 V 30 H 42 V 26 H 52 V 4 H 30 V 14 H 26 V 4 H 4 v 22 h 10 m 16,2 q 0,0.85 -0.6,1.4 Q 28.85,30 28,30 27.15,30 26.55,29.4 26,28.85 26,28 26,27.15 26.55,26.55 27.15,26 28,26 q 0.85,0 1.4,0.55 0.6,0.6 0.6,1.45"
     id="path148"
     style="fill:#ffffff;fill-opacity:1" />
</svg>
