<?xml version="1.0" encoding="UTF-8" standalone="no"?>
<svg
   version="1.1"
   id="svg344"
   width="60"
   height="60"
   xmlns="http://www.w3.org/2000/svg"
   xmlns:svg="http://www.w3.org/2000/svg">
  <defs
     id="defs1" />
  <g
     id="g344"
     style="fill:#ffffff;fill-opacity:1"
     transform="translate(-554,-2)">
    <path
       stroke="none"
       fill="#333333"
       d="m 592,30 h 20 v 4 H 592 V 30 M 586,4 v 20 h -4 V 4 h 4 m -30,26 h 20 v 4 h -20 v -4 m 30,10 v 20 h -4 V 40 h 4"
       id="path7"
       style="fill:#ffffff;fill-opacity:1" />
    <path
       stroke="none"
       fill="#333333"
       d="M 602.4,13.6 Q 594.8,6 584,6 573.2,6 565.6,13.6 558,21.2 558,32 q 0,10.8 7.6,18.4 7.6,7.6 18.4,7.6 10.8,0 18.4,-7.6 Q 610,42.8 610,32 610,21.2 602.4,13.6 M 614,32 q 0,12.45 -8.8,21.2 Q 596.45,62 584,62 571.55,62 562.75,53.2 554,44.45 554,32 554,19.55 562.75,10.75 571.55,2 584,2 q 12.45,0 21.2,8.75 8.8,8.8 8.8,21.25"
       id="path8"
       style="fill:#ffffff;fill-opacity:1" />
    <path
       stroke="none"
       fill="#333333"
       d="m 582,30 h 4 v 4 h -4 v -4"
       id="path9"
       style="fill:#ffffff;fill-opacity:1" />
  </g>
</svg>
