<?xml version="1.0" encoding="UTF-8" standalone="no"?>
<svg
   version="1.1"
   id="svg344"
   width="60"
   height="60"
   xmlns="http://www.w3.org/2000/svg"
   xmlns:svg="http://www.w3.org/2000/svg">
  <defs
     id="defs1" />
  <path
     stroke="none"
     fill="#333333"
     d="M 23.3,55.2 28,55.95 V 42 h 4 V 55.95 L 36.8,55.2 37.85,59.05 30,60 q -4.05,0 -7.75,-0.95 L 23.3,55.2 M 4.85,23.25 Q 4.25,25.55 4.1,28 H 18 v 4 H 4.1 q 0.15,2.5 0.75,4.8 l -3.9,1.05 Q 0,34.1 0,30 0,25.9 0.95,22.2 l 3.9,1.05 M 55.2,36.75 Q 55.75,34.45 55.95,32 H 42 v -4 h 13.95 q -0.2,-2.45 -0.75,-4.7 l 3.85,-1.05 Q 60,25.9 60,30 q 0,4.1 -0.95,7.75 l -3.85,-1 M 36.75,4.85 32,4.1 V 18 H 28 V 4.1 L 23.35,4.8 22.3,0.95 Q 25.95,0 30,0 q 4.1,0 7.8,0.95 l -1.05,3.9"
     id="path114"
     style="fill:#ffffff;fill-opacity:1" />
</svg>
