<?xml version="1.0" encoding="UTF-8" standalone="no"?>
<svg
   version="1.1"
   id="svg344"
   width="48"
   height="48"
   xmlns="http://www.w3.org/2000/svg"
   xmlns:svg="http://www.w3.org/2000/svg">
  <defs
     id="defs1" />
  <path
     stroke="none"
     fill="#333333"
     d="m 8,4 h 6 V 0 h 4 V 8 H 8 V 18 H 0 V 14 H 4 V 8 Q 4,6.35 5.15,5.2 6.35,4 8,4 M 8,44 Q 6.35,44 5.15,42.8 4,41.65 4,40 V 34 H 0 v -4 h 8 v 10 h 10 v 8 H 14 V 44 H 8 M 40,4 Q 41.65,4 42.85,5.2 44,6.35 44,8 v 6 h 4 v 4 H 40 V 8 H 30 V 0 h 4 v 4 h 6 M 22,22 v -4 h 4 v 4 h 4 v 4 h -4 v 4 h -4 v -4 h -4 v -4 h 4 m 22,18 q 0,1.65 -1.15,2.8 Q 41.65,44 40,44 h -6 v 4 H 30 V 40 H 40 V 30 h 8 v 4 h -4 v 6"
     id="path147"
     style="fill:#ffffff;fill-opacity:1" />
</svg>
