<?xml version="1.0" encoding="UTF-8" standalone="no"?>
<svg
   version="1.1"
   id="svg344"
   width="64"
   height="48"
   xmlns="http://www.w3.org/2000/svg"
   xmlns:svg="http://www.w3.org/2000/svg">
  <defs
     id="defs1" />
  <path
     stroke="none"
     fill="#333333"
     d="m 20,0 v 48 h -4 v -8 h -4 v -4 h 4 V 28 H 8 v -4 h 8 V 16 H 4 V 12 H 16 V 4 H 0 V 0 H 20 M 44,0 H 64 V 4 H 48 v 8 h 12 v 4 H 48 v 8 h 8 v 4 h -8 v 8 h 4 v 4 h -4 v 8 H 44 V 0 M 34,24 q 0,0.85 -0.6,1.4 Q 32.85,26 32,26 31.15,26 30.55,25.4 30,24.85 30,24 30,23.15 30.55,22.55 31.15,22 32,22 32.85,22 33.4,22.55 34,23.15 34,24 M 31,8 h 2 V 18 H 31 V 8 m 0,22 h 2 V 40 H 31 V 30"
     id="path322"
     style="fill:#ffffff;fill-opacity:1" />
</svg>
