<?xml version="1.0" encoding="UTF-8" standalone="no"?>
<svg
   version="1.1"
   id="svg344"
   width="60"
   height="60"
   xmlns="http://www.w3.org/2000/svg"
   xmlns:svg="http://www.w3.org/2000/svg">
  <defs
     id="defs1" />
  <g
     id="g356"
     transform="translate(-695.52632,-600.80702)"
     style="fill:#ffffff;fill-opacity:1">
    <path
       stroke="none"
       fill="#333333"
       d="m 743.92632,612.40702 q -7.6,-7.6 -18.4,-7.6 -10.8,0 -18.4,7.6 -7.6,7.6 -7.6,18.4 0,10.8 7.6,18.4 7.6,7.6 18.4,7.6 10.8,0 18.4,-7.6 7.6,-7.6 7.6,-18.4 0,-10.8 -7.6,-18.4 m 11.6,18.4 q 0,12.45 -8.8,21.2 -8.75,8.8 -21.2,8.8 -12.45,0 -21.25,-8.8 -8.75,-8.75 -8.75,-21.2 0,-12.45 8.75,-21.25 8.8,-8.75 21.25,-8.75 12.45,0 21.2,8.75 8.8,8.8 8.8,21.25"
       id="path155"
       style="fill:#ffffff;fill-opacity:1" />
    <path
       stroke="none"
       fill="#333333"
       d="m 727.52632,630.80702 q 0,0.85 -0.6,1.4 -0.55,0.6 -1.4,0.6 -0.85,0 -1.45,-0.6 -0.55,-0.55 -0.55,-1.4 0,-0.85 0.55,-1.45 0.6,-0.55 1.45,-0.55 0.85,0 1.4,0.55 0.6,0.6 0.6,1.45"
       id="path156"
       style="fill:#ffffff;fill-opacity:1" />
  </g>
</svg>
