<?xml version="1.0" encoding="UTF-8" standalone="no"?>
<svg
   version="1.1"
   id="svg344"
   width="32"
   height="12"
   xmlns="http://www.w3.org/2000/svg"
   xmlns:svg="http://www.w3.org/2000/svg">
  <defs
     id="defs1" />
  <g
     id="g361"
     transform="translate(-295.52632,-486.80702)"
     style="fill:#ffffff;fill-opacity:1">
    <path
       stroke="none"
       fill="#333333"
       d="m 319.52632,492.80702 6,-6 2,2 -4,4 4,4 -2,2 -6,-6 m -6,0 q 0,0.85 -0.6,1.4 -0.55,0.6 -1.4,0.6 -0.85,0 -1.45,-0.6 -0.55,-0.55 -0.55,-1.4 0,-0.85 0.55,-1.45 0.6,-0.55 1.45,-0.55 0.85,0 1.4,0.55 0.6,0.6 0.6,1.45 m -10,0 -6,6 -2,-2 4,-4 -4,-4 2,-2 6,6"
       id="path118"
       style="fill:#ffffff;fill-opacity:1" />
  </g>
</svg>
