<?xml version="1.0" encoding="UTF-8" standalone="no"?>
<svg
   version="1.1"
   id="svg344"
   width="60"
   height="60"
   xmlns="http://www.w3.org/2000/svg"
   xmlns:svg="http://www.w3.org/2000/svg">
  <defs
     id="defs1" />
  <path
     stroke="none"
     fill="#333333"
     d="M 60,2 35,27 33,25 58,0 60,2 M 32,30 q 0,0.85 -0.6,1.4 Q 30.85,32 30,32 29.15,32 28.55,31.4 28,30.85 28,30 28,29.15 28.55,28.55 29.15,28 30,28 30.85,28 31.4,28.55 32,29.15 32,30 M 58,60 33,35 35,33 60,58 58,60 M 0,2 2,0 27,25 25,27 0,2 M 2,60 0,58 25,33 27,35 2,60"
     id="path295"
     style="fill:#ffffff;fill-opacity:1" />
</svg>
