<?xml version="1.0" encoding="UTF-8" standalone="no"?>
<svg
   version="1.1"
   id="svg344"
   width="64"
   height="47.400002"
   xmlns="http://www.w3.org/2000/svg"
   xmlns:svg="http://www.w3.org/2000/svg">
  <defs
     id="defs1" />
  <path
     stroke="none"
     fill="#333333"
     d="M 15,6.7 Q 20.6,1.15 28,0 v 4.1 q -5.75,1.05 -10.15,5.45 -2.8,2.8 -4.25,6.15 -0.85,1.9 -1.2,4 H 0 v -4 H 9.3 Q 11,10.75 15,6.7 m 0,33.95 q -4,-4 -5.7,-8.95 H 0 v -4 h 12.4 q 0.35,2.1 1.2,4 1.45,3.35 4.25,6.15 4.4,4.4 10.15,5.5 V 47.4 Q 20.6,46.25 15,40.65 M 48.95,6.7 q 4.05,4.05 5.75,9 H 64 v 4 H 51.65 Q 51.25,17.6 50.4,15.7 48.95,12.35 46.15,9.55 41.75,5.15 36,4.1 V 0 q 7.4,1.15 12.95,6.7 m 0,33.95 Q 43.4,46.25 36,47.4 v -4.05 q 5.75,-1.15 10.1,-5.5 l 0.05,-0.05 q 2.75,-2.75 4.25,-6.1 0.8,-1.9 1.25,-4 H 64 v 4 h -9.3 q -1.75,4.95 -5.75,8.95"
     id="path251"
     style="fill:#ffffff;fill-opacity:1" />
</svg>
