<?xml version="1.0" encoding="UTF-8" standalone="no"?>
<svg
   version="1.1"
   id="svg344"
   width="64"
   height="64"
   xmlns="http://www.w3.org/2000/svg"
   xmlns:svg="http://www.w3.org/2000/svg">
  <defs
     id="defs1" />
  <g
     id="g12"
     transform="translate(-486.52632,-667.80702)"
     style="fill:#ffffff;fill-opacity:1">
    <path
       stroke="none"
       fill="#333333"
       d="m 532.52632,697.80702 h 18 v 4 h -18 v -4 m -12,-30 v 18 h -4 v -18 h 4 m -34,30 h 18 v 4 h -18 v -4 m 34,16 v 18 h -4 v -18 h 4"
       id="path151"
       style="fill:#ffffff;fill-opacity:1" />
    <path
       stroke="none"
       fill="#333333"
       d="m 494.52632,671.80702 h 48 q 1.65,0 2.85,1.2 1.15,1.15 1.15,2.8 v 48 q 0,1.65 -1.15,2.8 -1.2,1.2 -2.85,1.2 h -48 q -1.65,0 -2.85,-1.2 -1.15,-1.15 -1.15,-2.8 v -48 q 0,-1.65 1.15,-2.8 1.2,-1.2 2.85,-1.2 m 0,52 h 48 v -48 h -48 v 48"
       id="path152"
       style="fill:#ffffff;fill-opacity:1" />
    <path
       stroke="none"
       fill="#333333"
       d="m 512.52632,689.80702 h 12 q 1.65,0 2.85,1.2 1.15,1.15 1.15,2.8 v 12 q 0,1.65 -1.15,2.8 -1.2,1.2 -2.85,1.2 h -12 q -1.65,0 -2.85,-1.2 -1.15,-1.15 -1.15,-2.8 v -12 q 0,-1.65 1.15,-2.8 1.2,-1.2 2.85,-1.2 m 0,16 h 12 v -12 h -12 v 12"
       id="path153"
       style="fill:#ffffff;fill-opacity:1" />
  </g>
</svg>
