<?xml version="1.0" encoding="UTF-8" standalone="no"?>
<svg
   version="1.1"
   id="svg344"
   width="64"
   height="20"
   xmlns="http://www.w3.org/2000/svg"
   xmlns:svg="http://www.w3.org/2000/svg">
  <defs
     id="defs1" />
  <path
     stroke="none"
     fill="#333333"
     d="m 40,10 q 0,3.3 -2.35,5.65 Q 35.3,18 32,18 28.65,18 26.3,15.65 24,13.3 24,10 24,6.65 26.3,4.3 28.6,2.05 31.8,2 h 0.4 Q 35.35,2.05 37.65,4.3 40,6.65 40,10 m -6,0 q 0,0.85 -0.6,1.4 Q 32.85,12 32,12 31.15,12 30.55,11.4 30,10.85 30,10 30,9.15 30.55,8.55 31.15,8 32,8 32.85,8 33.4,8.55 34,9.15 34,10 M 36.25,5.75 Q 34.5,4 32,4 29.5,4 27.75,5.7 L 27.7,5.75 Q 26,7.5 26,10 26,12.5 27.75,14.25 29.5,16 32,16 34.45,16 36.25,14.25 38,12.45 38,10 38,7.5 36.25,5.75 M 0,10 10,0 12,2 4,10 12,18 10,20 0,10 m 64,0 -10,10 -2,-2 8,-8 -8,-8 2,-2 10,10"
     id="path192"
     style="fill:#ffffff;fill-opacity:1" />
</svg>
