<?xml version="1.0" encoding="UTF-8" standalone="no"?>
<svg
   version="1.1"
   id="svg344"
   width="64"
   height="64"
   xmlns="http://www.w3.org/2000/svg"
   xmlns:svg="http://www.w3.org/2000/svg">
  <defs
     id="defs1" />
  <g
     id="g351"
     transform="translate(-1176.5263,-391.80702)"
     style="fill:#ffffff;fill-opacity:1">
    <path
       stroke="none"
       fill="#333333"
       d="m 1198.6263,413.90702 q -4.1,4.1 -4.1,9.9 0,5.8 4.1,9.9 4.1,4.1 9.9,4.1 5.75,0 9.85,-4.1 l 0.05,-0.05 q 4.1,-4.1 4.1,-9.85 0,-5.8 -4.1,-9.9 -4.1,-4.1 -9.9,-4.1 -5.8,0 -9.9,4.1 m 22.6,-2.85 q 5.3,5.3 5.3,12.75 0,7.4 -5.3,12.7 -5.3,5.3 -12.7,5.3 -7.45,0 -12.75,-5.3 -5.25,-5.25 -5.25,-12.7 0,-7.45 5.25,-12.7 l 0.05,-0.05 q 5.25,-5.25 12.7,-5.25 7.45,0 12.7,5.25"
       id="path105"
       style="fill:#ffffff;fill-opacity:1" />
    <path
       stroke="none"
       fill="#333333"
       d="m 1176.5263,421.80702 h 64 v 4 h -64 v -4"
       id="path106"
       style="fill:#ffffff;fill-opacity:1" />
    <path
       stroke="none"
       fill="#333333"
       d="m 1210.5263,391.80702 v 64 h -4 v -64 h 4"
       id="path107"
       style="fill:#ffffff;fill-opacity:1" />
    <path
       stroke="none"
       fill="#333333"
       d="m 1176.5263,417.80702 h 4 v 12 h -4 v -12"
       id="path108"
       style="fill:#ffffff;fill-opacity:1" />
    <path
       stroke="none"
       fill="#333333"
       d="m 1236.5263,417.80702 h 4 v 12 h -4 v -12"
       id="path109"
       style="fill:#ffffff;fill-opacity:1" />
    <path
       stroke="none"
       fill="#333333"
       d="m 1214.5263,391.80702 v 4 h -12 v -4 h 12"
       id="path110"
       style="fill:#ffffff;fill-opacity:1" />
    <path
       stroke="none"
       fill="#333333"
       d="m 1214.5263,451.80702 v 4 h -12 v -4 h 12"
       id="path111"
       style="fill:#ffffff;fill-opacity:1" />
    <path
       stroke="none"
       fill="#333333"
       d="m 1228.5263,413.80702 h 4 v 20 h -4 v -20"
       id="path112"
       style="fill:#ffffff;fill-opacity:1" />
    <path
       stroke="none"
       fill="#333333"
       d="m 1184.5263,413.80702 h 4 v 20 h -4 v -20"
       id="path113"
       style="fill:#ffffff;fill-opacity:1" />
  </g>
</svg>
