<?xml version="1.0" encoding="UTF-8" standalone="no"?>
<svg
   version="1.1"
   id="svg344"
   width="64"
   height="64"
   xmlns="http://www.w3.org/2000/svg"
   xmlns:svg="http://www.w3.org/2000/svg">
  <defs
     id="defs1" />
  <path
     stroke="none"
     fill="#333333"
     d="M 12,8 H 26 V 0 h 4 V 12 H 12 V 30 H 0 V 26 H 8 V 12 Q 8,10.35 9.15,9.2 10.35,8 12,8 m 0,48 Q 10.35,56 9.15,54.8 8,53.65 8,52 V 38 H 0 V 34 H 12 V 52 H 30 V 64 H 26 V 56 H 12 M 52,8 Q 53.65,8 54.85,9.2 56,10.35 56,12 v 14 h 8 v 4 H 52 V 12 H 34 V 0 h 4 v 8 h 14 m 4,44 q 0,1.65 -1.15,2.8 Q 53.65,56 52,56 H 38 v 8 H 34 V 52 H 52 V 34 h 12 v 4 h -8 v 14"
     id="path149"
     style="fill:#ffffff;fill-opacity:1" />
</svg>
