<?xml version="1.0" encoding="UTF-8" standalone="no"?>
<svg
   version="1.1"
   id="svg344"
   width="60"
   height="60"
   xmlns="http://www.w3.org/2000/svg"
   xmlns:svg="http://www.w3.org/2000/svg">
  <defs
     id="defs1" />
  <g
     id="g350"
     transform="translate(-695.52632,-393.80702)"
     style="fill:#ffffff;fill-opacity:1">
    <path
       stroke="none"
       fill="#333333"
       d="m 755.52632,423.80702 q 0,12.45 -8.8,21.2 -8.75,8.8 -21.2,8.8 -12.45,0 -21.25,-8.8 -8.75,-8.75 -8.75,-21.2 0,-12.45 8.75,-21.25 8.8,-8.75 21.25,-8.75 12.45,0 21.2,8.75 8.8,8.8 8.8,21.25 m -11.6,-18.4 q -7.6,-7.6 -18.4,-7.6 -10.8,0 -18.4,7.6 -7.6,7.6 -7.6,18.4 0,10.8 7.6,18.4 7.6,7.6 18.4,7.6 10.8,0 18.4,-7.6 7.6,-7.6 7.6,-18.4 0,-10.8 -7.6,-18.4"
       id="path42"
       style="fill:#ffffff;fill-opacity:1" />
    <path
       stroke="none"
       fill="#333333"
       d="m 727.52632,395.80702 v 8 h -4 v -8 h 4 m 26,30 h -8 v -4 h 8 v 4 m -26,18 v 8 h -4 v -8 h 4 m -22,-18 h -8 v -4 h 8 v 4"
       id="path43"
       style="fill:#ffffff;fill-opacity:1" />
    <path
       stroke="none"
       fill="#333333"
       d="m 725.52632,409.80702 q 3.9,0 7.05,1.85 l -2,3.45 q -2.25,-1.3 -5,-1.3 h -0.05 l -2.75,0.35 q -1.2,0.35 -2.25,0.95 l -2,-3.45 q 1.95,-1.2 4.25,-1.6 l 2.75,-0.25 m -14,14 q 0,-3.9 1.85,-7 l 3.45,2 q -1.3,2.25 -1.3,5 v 0.05 q 0,2.7 1.3,4.95 l -3.5,2 q -1.8,-3.15 -1.8,-7 m 28,0 q 0,3.9 -1.85,7.05 l -3.45,-2 q 1.3,-2.25 1.3,-5.05 0,-2.8 -1.3,-5.05 l 3.45,-2 q 1.85,3.1 1.85,7.05 m -14,14 q -3.9,0 -7,-1.8 l 2,-3.5 q 2.2,1.3 5,1.3 2.8,0 5.05,-1.3 l 2,3.45 q -3.15,1.85 -7.05,1.85"
       id="path44"
       style="fill:#ffffff;fill-opacity:1" />
  </g>
</svg>
