<?xml version="1.0" encoding="UTF-8" standalone="no"?>
<svg
   version="1.1"
   id="svg344"
   width="60"
   height="60"
   xmlns="http://www.w3.org/2000/svg"
   xmlns:svg="http://www.w3.org/2000/svg">
  <defs
     id="defs1" />
  <path
     stroke="none"
     fill="#333333"
     d="M 49.8,10.2 Q 42.95,3.35 33.8,2.25 L 30,6 26.25,2.25 q -9.2,1.1 -16.05,7.9 l -0.05,0.05 q -6.8,6.85 -7.9,16.05 L 6,30 2.25,33.8 q 1.1,9.15 7.95,16 6.85,6.85 16.05,8 L 30,54 l 3.8,3.8 q 9.15,-1.15 16,-8 6.85,-6.85 8,-16 L 54,30 57.8,26.25 q -1.15,-9.2 -8,-16.05 M 60,30 q 0,2.85 -0.45,5.55 Q 58,44.45 51.2,51.2 44.45,58 35.55,59.55 L 30,60 24.5,59.55 Q 15.55,58 8.75,51.2 2,44.45 0.5,35.55 0,32.85 0,30 0,27.15 0.5,24.5 2,15.55 8.75,8.75 15.55,2 24.5,0.5 L 30,0 35.55,0.5 Q 44.45,2 51.2,8.75 58,15.55 59.55,24.5 60,27.15 60,30"
     id="path209"
     style="fill:#ffffff;fill-opacity:1" />
</svg>
