<?xml version="1.0" encoding="UTF-8" standalone="no"?>
<svg
   version="1.1"
   id="svg344"
   width="59.999969"
   height="60"
   xmlns="http://www.w3.org/2000/svg"
   xmlns:svg="http://www.w3.org/2000/svg">
  <defs
     id="defs1" />
  <g
     id="g373"
     transform="translate(-971.75283,-388.37473)"
     style="fill:#ffffff;fill-opacity:1">
    <path
       stroke="none"
       fill="#333333"
       d="m 1020.1528,399.97473 q -7.6,-7.6 -18.4,-7.6 -10.79997,0 -18.39997,7.6 -7.6,7.6 -7.6,18.4 0,10.8 7.6,18.4 7.6,7.6 18.39997,7.6 10.8,0 18.4,-7.6 7.6,-7.6 7.6,-18.4 0,-10.8 -7.6,-18.4 m 11.6,18.4 q 0,12.45 -8.8,21.2 -8.75,8.8 -21.2,8.8 -12.44997,0 -21.24997,-8.8 -8.75,-8.75 -8.75,-21.2 0,-12.45 8.75,-21.25 8.8,-8.75 21.24997,-8.75 12.45,0 21.2,8.75 8.8,8.8 8.8,21.25"
       id="path45"
       style="fill:#ffffff;fill-opacity:1" />
    <path
       stroke="none"
       fill="#333333"
       d="m 999.75283,392.37473 h 3.99997 v 4 h -3.99997 v -4 m 0,8 h 3.99997 v 4 h -3.99997 v -4 m 0,8 h 3.99997 v 4 h -3.99997 v -4"
       id="path46"
       style="fill:#ffffff;fill-opacity:1" />
    <path
       stroke="none"
       fill="#333333"
       d="m 995.75283,416.37473 h 11.99997 v 4 h -4 v 4 h 2 v 4 h -2 v 4 h 2 v 4 h -2 v 10 h -3.99997 v -10 h -2 v -4 h 2 v -4 h -2 v -4 h 2 v -4 h -4 v -4"
       id="path47"
       style="fill:#ffffff;fill-opacity:1" />
    <path
       stroke="none"
       fill="#333333"
       d="m 1029.7528,416.37473 v 4 h -18 v -4 h 18 m -55.99997,0 h 18 v 4 h -18 v -4"
       id="path48"
       style="fill:#ffffff;fill-opacity:1" />
  </g>
</svg>
