<?xml version="1.0" encoding="UTF-8" standalone="no"?>
<svg
   version="1.1"
   id="svg344"
   width="40"
   height="40"
   xmlns="http://www.w3.org/2000/svg"
   xmlns:svg="http://www.w3.org/2000/svg">
  <defs
     id="defs1" />
  <path
     stroke="none"
     fill="#333333"
     d="m 36,14 h 4 v 4 H 32 V 12 L 28,8 H 22 V 0 h 4 v 4 h 4 l 6,6 v 4 M 4,14 v -4 l 6,-6 h 4 V 0 h 4 v 8 h -6 l -4,4 v 6 H 0 V 14 H 4 M 4,26 H 0 v -4 h 8 v 6 l 4,4 h 6 v 8 H 14 V 36 H 10 L 4,30 v -4 m 32,0 v 4 l -6,6 h -4 v 4 h -4 v -8 h 6 l 4,-4 v -6 h 8 v 4 h -4"
     id="path233"
     style="fill:#ffffff;fill-opacity:1" />
</svg>
