<?xml version="1.0" encoding="UTF-8" standalone="no"?>
<svg
   version="1.1"
   id="svg344"
   width="32"
   height="32"
   xmlns="http://www.w3.org/2000/svg"
   xmlns:svg="http://www.w3.org/2000/svg">
  <defs
     id="defs1" />
  <path
     stroke="none"
     fill="#333333"
     d="M 0,10 V 6 L 6,0 h 4 V 4 H 8 L 4,8 v 2 H 0 m 18,6 q 0,0.85 -0.6,1.4 Q 16.85,18 16,18 15.15,18 14.55,17.4 14,16.85 14,16 14,15.15 14.55,14.55 15.15,14 16,14 16.85,14 17.4,14.55 18,15.15 18,16 M 32,10 H 28 V 8 L 24,4 H 22 V 0 h 4 l 6,6 v 4 m 0,12 v 4 l -6,6 h -4 v -4 h 2 l 4,-4 v -2 h 4 M 0,22 h 4 v 2 l 4,4 h 2 v 4 H 6 L 0,26 v -4"
     id="path238"
     style="fill:#ffffff;fill-opacity:1" />
</svg>
