<?xml version="1.0" encoding="UTF-8" standalone="no"?>
<svg
   version="1.1"
   id="svg344"
   width="44"
   height="44"
   xmlns="http://www.w3.org/2000/svg"
   xmlns:svg="http://www.w3.org/2000/svg">
  <defs
     id="defs1" />
  <path
     stroke="none"
     fill="#333333"
     d="m 44,4 -4,4 -4,-4 4,-4 4,4 m -16,8 6,-6 4,4 -6,6 h -4 v -4 m -12,0 v 4 h -4 l -6,-6 4,-4 6,6 m 0,20 -6,6 -4,-4 6,-6 h 4 v 4 m 12,0 v -4 h 4 l 6,6 -4,4 -6,-6 m 16,8 -4,4 -4,-4 4,-4 4,4 M 0,40 4,36 8,40 4,44 0,40 M 0,4 4,0 8,4 4,8 0,4"
     id="path290"
     style="fill:#ffffff;fill-opacity:1" />
</svg>
