<?xml version="1.0" encoding="UTF-8" standalone="no"?>
<svg
   version="1.1"
   id="svg344"
   width="64"
   height="38"
   xmlns="http://www.w3.org/2000/svg"
   xmlns:svg="http://www.w3.org/2000/svg">
  <defs
     id="defs1" />
  <path
     stroke="none"
     fill="#333333"
     d="m 36,20 v -2 h 10 v 2 H 36 m 12,-8 h 16 v 2 H 48 V 12 M 64,0 V 2 H 44 V 0 H 64 M 31,23 h 2 v 6 H 31 V 23 M 18,18 h 10 v 2 H 18 V 18 M 31,9 h 2 v 6 H 31 V 9 m 33,27 v 2 h -8 v -2 h 8 m 0,-12 v 2 H 52 V 24 H 64 M 0,0 H 20 V 2 H 0 V 0 m 16,12 v 2 H 0 V 12 H 16 M 0,36 h 8 v 2 H 0 V 36 M 0,24 h 12 v 2 H 0 v -2"
     id="path340"
     style="fill:#ffffff;fill-opacity:1" />
</svg>
