<?xml version="1.0" encoding="UTF-8" standalone="no"?>
<svg
   version="1.1"
   id="svg344"
   width="64"
   height="24"
   xmlns="http://www.w3.org/2000/svg"
   xmlns:svg="http://www.w3.org/2000/svg">
  <defs
     id="defs1" />
  <path
     stroke="none"
     fill="#333333"
     d="M 64,12 52,24 h -6 v -4 h 4 L 58,12 50,4 H 46 V 0 h 6 L 64,12 M 36,14 Q 35.15,14 34.6,13.4 34,12.85 34,12 34,11.15 34.6,10.55 35.15,10 36,10 36.85,10 37.45,10.55 38,11.15 38,12 38,12.85 37.45,13.4 36.85,14 36,14 m -8,0 Q 27.15,14 26.6,13.4 26,12.85 26,12 26,11.15 26.6,10.55 27.15,10 28,10 28.85,10 29.45,10.55 30,11.15 30,12 30,12.85 29.45,13.4 28.85,14 28,14 M 0,12 12,0 h 6 v 4 h -4 l -8,8 8,8 h 4 v 4 H 12 L 0,12"
     id="path195"
     style="fill:#ffffff;fill-opacity:1" />
</svg>
