<?xml version="1.0" encoding="UTF-8" standalone="no"?>
<svg
   version="1.1"
   id="svg344"
   width="64"
   height="40"
   xmlns="http://www.w3.org/2000/svg"
   xmlns:svg="http://www.w3.org/2000/svg">
  <defs
     id="defs1" />
  <path
     stroke="none"
     fill="#333333"
     d="m 34,20 q 0,0.85 -0.55,1.45 Q 32.85,22 32,22 31.15,22 30.6,21.45 30,20.85 30,20 30,19.15 30.6,18.6 31.15,18 32,18 32.85,18 33.45,18.6 34,19.15 34,20 M 4,20 q 0,7.05 3.25,12.75 L 10,30 13.85,33.85 7.6,40 Q 5.75,37.95 4.35,35.7 0,28.75 0,20 0,8.4 7.6,0 L 14,6.4 10,10.4 7.1,7.5 Q 4,13.1 4,20 m 56,0 Q 60,13.1 56.95,7.55 l -2.5,2.45 -4,-4 5.95,-6 q 2,2.2 3.45,4.6 Q 64,11.45 64,20 64,28.6 59.8,35.45 L 56.35,40 50,33.65 l 4,-4 2.9,2.9 Q 60,26.9 60,20"
     id="path306"
     style="fill:#ffffff;fill-opacity:1" />
</svg>
