<?xml version="1.0" encoding="UTF-8" standalone="no"?>
<svg
   version="1.1"
   id="svg344"
   width="28.9"
   height="15.9"
   xmlns="http://www.w3.org/2000/svg"
   xmlns:svg="http://www.w3.org/2000/svg">
  <defs
     id="defs1" />
  <path
     stroke="none"
     fill="#333333"
     d="M 9.75,4.4 V 4.45 H 9.65 L 7.85,5.55 7.8,5.6 Q 7.65,5.65 5.85,6.95 l -0.9,0.6 0.15,0.3 0.05,0.05 1.4,1.55 V 9.5 q 2.4,2 6.45,2.4 l 0.05,0.05 4.8,-0.35 H 17.8 q 2.7,-0.65 4.5,-2.15 L 23.65,7.85 23.8,7.5 23,7.05 22.9,6.95 20.65,5.35 q -1.2,-0.8 -2.2,-1.2 L 17.65,4 H 17.5 L 16.7,4.15 16.6,4.2 16.35,4.4 16.45,4.35 Q 15.5,5.2 14.75,5.25 L 14.3,5.3 14,5.2 12.9,4.8 12.75,4.7 12.65,4.6 12.2,4.2 11.1,4 H 11 L 10.55,4.05 10.45,4.1 9.75,4.4 M 9.3,0.25 H 9.35 L 11.35,0 Q 13.3,0.1 14.4,0.9 L 15.1,0.5 Q 16.2,0 17.5,0 l 2.35,0.4 0.1,0.05 2.85,1.55 2.4,1.7 q 0.75,0.5 1.5,0.65 l 2.2,0.4 -0.55,2.05 q -0.45,1.6 -1.25,3.05 -0.9,1.5 -2.2,2.65 -2.4,2.05 -6.15,3 H 18.7 l -6.15,0.4 Q 7.15,15.35 4,12.55 H 3.95 Q 2.6,11.4 1.7,9.95 V 9.9 Q 0.8,8.45 0.45,6.75 L 0,4.8 2.05,4.35 Q 2.8,4.2 3.55,3.65 V 3.7 L 5.6,2.25 H 5.55 L 7.85,0.9 7.95,0.85 9.3,0.25"
     id="path288"
     style="fill:#ffffff;fill-opacity:1" />
</svg>
