<?xml version="1.0" encoding="UTF-8" standalone="no"?>
<svg
   version="1.1"
   id="svg344"
   width="39.950001"
   height="23.951847"
   xmlns="http://www.w3.org/2000/svg"
   xmlns:svg="http://www.w3.org/2000/svg">
  <defs
     id="defs1" />
  <path
     stroke="none"
     fill="#333333"
     d="m 19.85,4.0009259 q -7.35,0.1 -14.6,7.9500001 7.25,7.85 14.6,8 7.3,-0.15 14.8,-8 -7.5,-7.8500001 -14.8,-7.9500001 m 2.1,7.8500001 q 0,-0.8 -0.6,-1.4 -0.6,-0.6000001 -1.4,-0.6000001 -0.8,0 -1.4,0.5500001 l -0.05,0.05 q -0.55,0.6 -0.55,1.4 0,0.8 0.6,1.4 0.6,0.6 1.4,0.6 0.8,0 1.35,-0.55 l 0.1,-0.1 q 0.55,-0.55 0.55,-1.35 m 2.2,4.25 q -1.75,1.75 -4.2,1.75 -2.5,0 -4.25,-1.75 -1.75,-1.75 -1.75,-4.25 0,-2.4500001 1.7,-4.2000001 l 0.05,-0.05 0.05,-0.05 q 1.75,-1.7 4.2,-1.7 2.5,0 4.25,1.75 1.75,1.75 1.75,4.2500001 0,2.45 -1.75,4.2 l -0.05,0.05 M 19.85,9.2592593e-4 Q 29.25,-0.09907407 38.75,10.600926 l 1.2,1.35 -1.2,1.35 q -9.5,10.75 -18.9,10.65 -9.45,0.1 -18.7,-10.65 l -1.15,-1.35 1.15,-1.3 Q 10.4,-0.09907407 19.85,9.2592593e-4"
     id="path285"
     style="fill:#ffffff;fill-opacity:1" />
</svg>
