<?xml version="1.0" encoding="UTF-8" standalone="no"?>
<svg
   version="1.1"
   id="svg344"
   width="60"
   height="60"
   xmlns="http://www.w3.org/2000/svg"
   xmlns:svg="http://www.w3.org/2000/svg">
  <defs
     id="defs1" />
  <g
     id="g3"
     transform="translate(-1178.7528,-457.37473)"
     style="fill:#ffffff;fill-opacity:1">
    <path
       stroke="none"
       fill="#333333"
       d="m 1238.7528,487.37473 q 0,12.45 -8.8,21.2 -8.75,8.8 -21.2,8.8 -12.45,0 -21.25,-8.8 -8.75,-8.75 -8.75,-21.2 0,-12.45 8.75,-21.25 8.8,-8.75 21.25,-8.75 12.45,0 21.2,8.75 8.8,8.8 8.8,21.25 m -21.5,-5.7 -2.85,-2.85 11.25,-11.25 q -7.15,-6.2 -16.9,-6.2 -9.75,0 -16.9,6.2 l 11.25,11.25 -2.85,2.85 -11.25,-11.25 q -6.25,7.15 -6.25,16.95 0,9.75 6.2,16.9 l 11.3,-11.3 2.85,2.85 -11.3,11.3 q 7.15,6.25 16.95,6.25 9.8,0 16.95,-6.25 l -11.3,-11.3 2.85,-2.85 11.3,11.3 q 6.2,-7.15 6.2,-16.9 0,-9.8 -6.25,-16.95 l -11.25,11.25"
       id="path79"
       style="fill:#ffffff;fill-opacity:1" />
  </g>
</svg>
