<?xml version="1.0" encoding="UTF-8" standalone="no"?>
<svg
   version="1.1"
   id="svg344"
   width="64"
   height="28"
   xmlns="http://www.w3.org/2000/svg"
   xmlns:svg="http://www.w3.org/2000/svg">
  <defs
     id="defs1" />
  <path
     stroke="none"
     fill="#333333"
     d="M 48,8 44,4 H 40 V 0 h 6 l 4,4 H 64 V 8 H 48 m 0,12 h 16 v 4 H 50 l -4,4 h -6 v -4 h 4 l 4,-4 M 38,14 q 0,2.45 -1.8,4.2 Q 34.45,20 32,20 29.55,20 27.75,18.2 26,16.45 26,14 26,11.55 27.75,9.75 29.55,8 32,8 34.45,8 36.2,9.75 38,11.55 38,14 M 33.4,12.6 Q 32.8,12 32,12 q -0.8,0 -1.35,0.55 l -0.1,0.1 Q 30,13.2 30,14 q 0,0.8 0.6,1.4 0.6,0.6 1.4,0.6 0.75,0 1.35,-0.6 L 33.4,15.35 Q 34,14.75 34,14 34,13.2 33.4,12.6 M 0,8 V 4 h 14 l 4,-4 h 6 V 4 H 20 L 16,8 H 0 m 0,12 h 16 l 4,4 h 4 v 4 H 18 L 14,24 H 0 v -4"
     id="path284"
     style="fill:#ffffff;fill-opacity:1" />
</svg>
