<?xml version="1.0" encoding="UTF-8" standalone="no"?>
<svg
   version="1.1"
   id="svg344"
   width="32"
   height="32"
   xmlns="http://www.w3.org/2000/svg"
   xmlns:svg="http://www.w3.org/2000/svg">
  <defs
     id="defs1" />
  <path
     stroke="none"
     fill="#333333"
     d="M 28,16 Q 28,12.5 26.3,9.75 L 24,12 20,8 22.3,5.75 Q 19.5,4 16,4 12.5,4 9.75,5.75 L 12,8 8,12 5.75,9.75 Q 4,12.5 4,16 4,19.5 5.75,22.3 L 8,20 12,24 9.75,26.3 Q 12.5,28 16,28 q 3.5,0 6.3,-1.7 L 20,24 l 4,-4 2.3,2.3 Q 28,19.5 28,16 m 4,0 q 0,5.15 -2.85,9.15 L 32,28 28,32 25.15,29.15 24,29.9 Q 20.45,32 16,32 10.85,32 6.85,29.15 L 4,32 0,28 2.85,25.15 Q 0,21.15 0,16 0,10.8 2.85,6.85 L 0,4 4,0 6.85,2.85 Q 10.8,0 16,0 20.45,0 24,2.1 L 25.15,2.85 28,0 32,4 29.15,6.85 Q 32,10.85 32,16"
     id="path298"
     style="fill:#ffffff;fill-opacity:1" />
</svg>
