<?xml version="1.0" encoding="UTF-8" standalone="no"?>
<svg
   version="1.1"
   id="svg344"
   width="32"
   height="32"
   xmlns="http://www.w3.org/2000/svg"
   xmlns:svg="http://www.w3.org/2000/svg">
  <defs
     id="defs1" />
  <path
     stroke="none"
     fill="#333333"
     d="M 18.85,13.2 Q 17.65,12 16,12 14.35,12 13.2,13.2 12,14.35 12,16 12,17.65 13.2,18.85 14.35,20 16,20 17.65,20 18.85,18.85 20,17.65 20,16 20,14.35 18.85,13.2 M 16,8 10,2 l 2,-2 4,4 4,-4 2,2 -6,6 m 6,8 q 0,2.5 -1.75,4.25 Q 18.5,22 16,22 13.5,22 11.75,20.25 10,18.5 10,16 10,13.5 11.75,11.75 13.5,10 16,10 18.5,10 20.25,11.75 22,13.5 22,16 m 2,0 6,-6 2,2 -4,4 4,4 -2,2 -6,-6 M 8,16 2,22 0,20 4,16 0,12 2,10 8,16 m 8,8 6,6 -2,2 -4,-4 -4,4 -2,-2 6,-6"
     id="path253"
     style="fill:#ffffff;fill-opacity:1" />
</svg>
