<?xml version="1.0" encoding="UTF-8" standalone="no"?>
<svg
   version="1.1"
   id="svg344"
   width="48"
   height="64"
   xmlns="http://www.w3.org/2000/svg"
   xmlns:svg="http://www.w3.org/2000/svg">
  <defs
     id="defs1" />
  <path
     stroke="none"
     fill="#333333"
     d="M 4,32 Q 4,32.85 3.4,33.4 2.85,34 2,34 1.15,34 0.55,33.4 0,32.85 0,32 0,31.15 0.55,30.55 1.15,30 2,30 2.85,30 3.4,30.55 4,31.15 4,32 M 35.3,20.65 q 3.2,3.2 4.25,7.35 h -4.2 Q 34.5,25.5 32.5,23.5 30.5,21.5 28,20.65 L 26,20 V 0 h 2 v 16.5 q 4.1,1 7.3,4.15 m -22.65,0 Q 15.85,17.45 20,16.5 V 0 h 2 v 20 l -2,0.65 q -2.5,0.85 -4.5,2.85 -2,2 -2.85,4.5 H 8.5 q 0.95,-4.15 4.15,-7.35 M 35.3,43.35 Q 32.1,46.5 28,47.5 V 64 H 26 V 44 l 2,-0.65 q 2.5,-0.85 4.5,-2.85 2,-2 2.85,-4.5 h 4.2 q -1.05,4.15 -4.25,7.35 m -22.65,0 Q 9.45,40.15 8.5,36 h 4.15 q 0.85,2.5 2.85,4.5 2,2 4.5,2.85 L 22,44 V 64 H 20 V 47.5 Q 15.85,46.55 12.65,43.35 M 48,32 q 0,0.85 -0.6,1.4 Q 46.85,34 46,34 45.15,34 44.55,33.4 44,32.85 44,32 44,31.15 44.55,30.55 45.15,30 46,30 q 0.85,0 1.4,0.55 0.6,0.6 0.6,1.45"
     id="path300"
     style="fill:#ffffff;fill-opacity:1" />
</svg>
