<?xml version="1.0" encoding="UTF-8" standalone="no"?>
<svg
   version="1.1"
   id="svg344"
   width="41.799999"
   height="40"
   xmlns="http://www.w3.org/2000/svg"
   xmlns:svg="http://www.w3.org/2000/svg">
  <defs
     id="defs1" />
  <g
     id="g352"
     transform="translate(-1532.6263,-468.80702)"
     style="fill:#ffffff;fill-opacity:1">
    <path
       stroke="none"
       fill="#333333"
       d="m 1532.6263,505.90702 8.4,-6.7 q 0.9,1.8 2.45,3.4 l -7.95,6.2 -2.9,-2.9 m 20.9,-27.1 -2,0.15 v -10.15 h 4 v 10.15 l -2,-0.15 m 2,14 q 0,0.85 -0.6,1.4 -0.55,0.6 -1.4,0.6 -0.85,0 -1.45,-0.6 -0.55,-0.55 -0.55,-1.4 0,-0.85 0.55,-1.45 0.6,-0.55 1.45,-0.55 0.85,0 1.4,0.55 0.6,0.6 0.6,1.45 m 16,16 -8,-6.2 q 1.55,-1.6 2.5,-3.4 l 8.4,6.7 -2.9,2.9"
       id="path208"
       style="fill:#ffffff;fill-opacity:1" />
  </g>
</svg>
