<?xml version="1.0" encoding="UTF-8" standalone="no"?>
<svg
   version="1.1"
   id="svg344"
   width="56"
   height="40"
   xmlns="http://www.w3.org/2000/svg"
   xmlns:svg="http://www.w3.org/2000/svg">
  <defs
     id="defs1" />
  <path
     stroke="none"
     fill="#333333"
     d="M 4,0 H 16 V 4 H 4 V 16 H 0 V 4 Q 0,2.35 1.15,1.2 2.35,0 4,0 M 52,0 Q 53.65,0 54.85,1.2 56,2.35 56,4 V 16 H 52 V 4 H 40 V 0 H 52 M 4,40 Q 2.35,40 1.15,38.8 0,37.65 0,36 V 24 h 4 v 12 h 12 v 4 H 4 m 52,-4 q 0,1.65 -1.15,2.8 Q 53.65,40 52,40 H 40 V 36 H 52 V 24 h 4 v 12"
     id="path154"
     style="fill:#ffffff;fill-opacity:1" />
</svg>
