<?xml version="1.0" encoding="UTF-8" standalone="no"?>
<svg
   version="1.1"
   id="svg344"
   width="64"
   height="32"
   xmlns="http://www.w3.org/2000/svg"
   xmlns:svg="http://www.w3.org/2000/svg">
  <defs
     id="defs1" />
  <path
     stroke="none"
     fill="#333333"
     d="m 48,32 v -4 q 5,0 8.5,-3.5 Q 60,21 60,16 60,11.05 56.5,7.55 53,4 48,4 V 0 Q 54.65,0 59.35,4.7 64,9.4 64,16 64,22.65 59.35,27.3 54.65,32 48,32 M 34,16 q 0,0.85 -0.55,1.45 Q 32.85,18 32,18 31.15,18 30.6,17.45 30,16.85 30,16 30,15.15 30.6,14.6 31.15,14 32,14 32.85,14 33.45,14.6 34,15.15 34,16 M 16,32 Q 9.35,32 4.65,27.3 0,22.65 0,16 0,9.4 4.65,4.7 9.35,0 16,0 V 4 Q 11,4 7.5,7.55 4,11.05 4,16 4,21 7.5,24.5 11,28 16,28 v 4"
     id="path191"
     style="fill:#ffffff;fill-opacity:1" />
</svg>
