<?xml version="1.0" encoding="UTF-8" standalone="no"?>
<svg
   version="1.1"
   id="svg344"
   width="64"
   height="60"
   xmlns="http://www.w3.org/2000/svg"
   xmlns:svg="http://www.w3.org/2000/svg">
  <defs
     id="defs1" />
  <g
     id="g1"
     transform="translate(-1176.7528,-388.37473)"
     style="fill:#ffffff;fill-opacity:1">
    <path
       stroke="none"
       fill="#333333"
       d="m 1201.6528,411.27473 -0.05,0.05 q -2.85,2.95 -2.85,7.05 v 0.05 q 0,4.1 2.9,7.05 2.95,2.9 7.1,2.9 4.15,0 7.05,-2.9 l 0.05,-0.05 q 2.9,-2.9 2.9,-7.05 0,-4.15 -2.9,-7.1 -2.95,-2.9 -7.05,-2.9 h -0.05 q -4.1,0 -7.05,2.85 l -0.05,0.05 m 17,-2.85 q 4.1,4.1 4.1,9.95 0,5.8 -4.1,9.9 -4.1,4.1 -9.9,4.1 -5.85,0 -9.95,-4.1 -4.05,-4.1 -4.05,-9.9 0,-5.8 4.05,-9.9 l 0.05,-0.05 q 4.1,-4.05 9.9,-4.05 5.8,0 9.9,4.05 m -7.9,9.95 q 0,0.85 -0.6,1.4 -0.55,0.6 -1.4,0.6 -0.85,0 -1.45,-0.6 -0.55,-0.55 -0.55,-1.4 0,-0.85 0.55,-1.45 0.6,-0.55 1.45,-0.55 0.85,0 1.4,0.55 0.6,0.6 0.6,1.45"
       id="path28"
       style="fill:#ffffff;fill-opacity:1" />
    <path
       stroke="none"
       fill="#333333"
       d="m 1238.7528,418.37473 q 0,12.45 -8.8,21.2 -8.75,8.8 -21.2,8.8 -12.45,0 -21.25,-8.8 -8.75,-8.75 -8.75,-21.2 0,-12.45 8.75,-21.25 8.8,-8.75 21.25,-8.75 12.45,0 21.2,8.75 8.8,8.8 8.8,21.25 m -11.6,-18.4 q -7.6,-7.6 -18.4,-7.6 -10.8,0 -18.4,7.6 -7.6,7.6 -7.6,18.4 0,10.8 7.6,18.4 7.6,7.6 18.4,7.6 10.8,0 18.4,-7.6 7.6,-7.6 7.6,-18.4 0,-10.8 -7.6,-18.4"
       id="path29"
       style="fill:#ffffff;fill-opacity:1" />
    <path
       stroke="none"
       fill="#333333"
       d="m 1214.7528,420.37473 v -4 h 26 v 4 h -26"
       id="path30"
       style="fill:#ffffff;fill-opacity:1" />
    <path
       stroke="none"
       fill="#333333"
       d="m 1176.7528,420.37473 v -4 h 26 v 4 h -26"
       id="path31"
       style="fill:#ffffff;fill-opacity:1" />
    <path
       stroke="none"
       fill="#333333"
       d="m 1214.7528,422.37473 14,14 -2,2 -14,-14 2,-2"
       id="path32"
       style="fill:#ffffff;fill-opacity:1" />
    <path
       stroke="none"
       fill="#333333"
       d="m 1202.7528,422.37473 2,2 -14,14 -2,-2 14,-14"
       id="path33"
       style="fill:#ffffff;fill-opacity:1" />
  </g>
</svg>
