<?xml version="1.0" encoding="UTF-8" standalone="no"?>
<svg
   version="1.1"
   id="svg344"
   width="36"
   height="36"
   xmlns="http://www.w3.org/2000/svg"
   xmlns:svg="http://www.w3.org/2000/svg">
  <defs
     id="defs1" />
  <path
     stroke="none"
     fill="#333333"
     d="m 16,0 h 4 V 12 H 16 V 0 m -4,16 v 4 H 0 V 16 H 12 M 27.9,8.05 q 2.6,2.6 3.6,5.95 H 27.2 Q 26.5,12.3 25.1,10.9 23.7,9.5 22,8.8 V 4.55 q 3.3,0.95 5.9,3.5 M 8.05,8.1 8.1,8.05 Q 10.7,5.5 14,4.55 V 8.8 q -1.65,0.7 -3.05,2.05 L 10.9,10.9 10.85,10.95 Q 9.5,12.35 8.8,14 H 4.55 Q 5.5,10.7 8.05,8.1 m 0,19.8 Q 5.5,25.3 4.55,22 H 8.8 q 0.7,1.7 2.1,3.1 1.4,1.4 3.1,2.1 v 4.3 q -3.35,-1 -5.95,-3.6 M 20,18 q 0,0.85 -0.6,1.4 Q 18.85,20 18,20 17.15,20 16.55,19.4 16,18.85 16,18 16,17.15 16.55,16.55 17.15,16 18,16 q 0.85,0 1.4,0.55 0.6,0.6 0.6,1.45 m 4,2 v -4 h 12 v 4 H 24 m 3.9,7.9 Q 25.3,30.5 22,31.45 V 27.2 q 1.65,-0.7 3.05,-2.1 l 0.05,-0.05 q 1.4,-1.4 2.1,-3.05 h 4.25 Q 30.5,25.3 27.9,27.9 M 16,24 h 4 V 36 H 16 V 24"
     id="path178"
     style="fill:#ffffff;fill-opacity:1" />
</svg>
