<?xml version="1.0" encoding="UTF-8" standalone="no"?>
<svg
   version="1.1"
   id="svg344"
   width="40"
   height="40"
   xmlns="http://www.w3.org/2000/svg"
   xmlns:svg="http://www.w3.org/2000/svg">
  <defs
     id="defs1" />
  <g
     id="g372"
     transform="translate(-1395.5263,-817.80702)"
     style="fill:#ffffff;fill-opacity:1">
    <path
       stroke="none"
       fill="#333333"
       d="m 1417.5263,837.80702 q 0,0.85 -0.6,1.4 -0.55,0.6 -1.4,0.6 -0.85,0 -1.45,-0.6 -0.55,-0.55 -0.55,-1.4 0,-0.85 0.55,-1.45 0.6,-0.55 1.45,-0.55 0.85,0 1.4,0.55 0.6,0.6 0.6,1.45 m -8,8 v -2 h 12 v 2 h -12 m 0,-14 v -2 h 12 v 2 h -12 m -4,2 v -14 h -10 v -2 h 12 v 40 h -2 v -6 h -2 v -2 h 2 v -14 h -6 v -2 h 6 m 18,-16 h 12 v 2 h -10 v 14 h 6 v 2 h -6 v 14 h 2 v 2 h -2 v 6 h -2 v -40"
       id="path338"
       style="fill:#ffffff;fill-opacity:1" />
  </g>
</svg>
