<?xml version="1.0" encoding="UTF-8" standalone="no"?>
<svg
   version="1.1"
   id="svg344"
   width="64"
   height="36"
   xmlns="http://www.w3.org/2000/svg"
   xmlns:svg="http://www.w3.org/2000/svg">
  <defs
     id="defs1" />
  <path
     stroke="none"
     fill="#333333"
     d="m 64,22 v 2 H 44 L 32,36 20,24 H 0 V 22 H 22 L 32,32 42,22 h 22 m 0,-8 H 42 L 32,4 22,14 H 0 V 12 H 20 L 32,0 44,12 h 20 v 2 m -30,4 q 0,0.85 -0.6,1.4 Q 32.85,20 32,20 31.15,20 30.55,19.4 30,18.85 30,18 30,17.15 30.55,16.55 31.15,16 32,16 q 0.85,0 1.4,0.55 0.6,0.6 0.6,1.45"
     id="path308"
     style="fill:#ffffff;fill-opacity:1" />
</svg>
