<?xml version="1.0" encoding="UTF-8" standalone="no"?>
<svg
   version="1.1"
   id="svg344"
   width="56"
   height="56"
   xmlns="http://www.w3.org/2000/svg"
   xmlns:svg="http://www.w3.org/2000/svg">
  <defs
     id="defs1" />
  <g
     id="g13"
     transform="translate(-352.52632,-602.80702)"
     style="fill:#ffffff;fill-opacity:1">
    <path
       stroke="none"
       fill="#333333"
       d="m 356.52632,602.80702 h 16 v 4 h -16 v 16 h -4 v -16 q 0,-1.65 1.15,-2.8 1.2,-1.2 2.85,-1.2 m 0,56 q -1.65,0 -2.85,-1.2 -1.15,-1.15 -1.15,-2.8 v -16 h 4 v 16 h 16 v 4 h -16 m 48,-56 q 1.65,0 2.85,1.2 1.15,1.15 1.15,2.8 v 16 h -4 v -16 h -16 v -4 h 16 m 4,52 q 0,1.65 -1.15,2.8 -1.2,1.2 -2.85,1.2 h -16 v -4 h 16 v -16 h 4 v 16"
       id="path140"
       style="fill:#ffffff;fill-opacity:1" />
    <path
       stroke="none"
       fill="#333333"
       d="m 382.52632,624.80702 v 4 h 4 v 4 h -4 v 4 h -4 v -4 h -4 v -4 h 4 v -4 h 4"
       id="path141"
       style="fill:#ffffff;fill-opacity:1" />
  </g>
</svg>
