<?xml version="1.0" encoding="UTF-8" standalone="no"?>
<svg
   version="1.1"
   id="svg344"
   width="48"
   height="33.900002"
   xmlns="http://www.w3.org/2000/svg"
   xmlns:svg="http://www.w3.org/2000/svg">
  <defs
     id="defs1" />
  <path
     stroke="none"
     fill="#333333"
     d="M 7.05,33.9 Q 0,26.85 0,16.95 0,7.05 7.05,0 L 12.7,5.65 V 5.7 Q 8,10.35 8,16.95 q 0,6.6 4.7,11.3 L 7.05,33.9 M 26,16.95 q 0,0.85 -0.6,1.4 -0.55,0.6 -1.4,0.6 -0.85,0 -1.45,-0.6 Q 22,17.8 22,16.95 q 0,-0.85 0.55,-1.45 0.6,-0.55 1.45,-0.55 0.85,0 1.4,0.55 0.6,0.6 0.6,1.45 m 22,0 q 0,9.9 -7.05,16.95 L 35.3,28.25 Q 40,23.55 40,16.95 40,10.35 35.3,5.65 L 40.95,0 Q 48,7.05 48,16.95"
     id="path252"
     style="fill:#ffffff;fill-opacity:1" />
</svg>
