<?xml version="1.0" encoding="UTF-8" standalone="no"?>
<svg
   version="1.1"
   id="svg344"
   width="60"
   height="60"
   xmlns="http://www.w3.org/2000/svg"
   xmlns:svg="http://www.w3.org/2000/svg">
  <defs
     id="defs1" />
  <g
     id="g363"
     transform="translate(-833.52632,-462.80702)"
     style="fill:#ffffff;fill-opacity:1">
    <path
       stroke="none"
       fill="#333333"
       d="m 861.52632,490.80702 h 4 v 4 h -4 v -4"
       id="path57"
       style="fill:#ffffff;fill-opacity:1" />
    <path
       stroke="none"
       fill="#333333"
       d="m 841.52632,472.80702 2,-2 9,9 3,-3 2,2 -3,3 3,3 2,-2 2,2 -6,6 -2,-2 2,-2 -3,-3 -3,3 -2,-2 3,-3 -9,-9"
       id="path58"
       style="fill:#ffffff;fill-opacity:1" />
    <path
       stroke="none"
       fill="#333333"
       d="m 881.92632,474.40702 q -7.6,-7.6 -18.4,-7.6 -10.8,0 -18.4,7.6 -7.6,7.6 -7.6,18.4 0,10.8 7.6,18.4 7.6,7.6 18.4,7.6 10.8,0 18.4,-7.6 7.6,-7.6 7.6,-18.4 0,-10.8 -7.6,-18.4 m 11.6,18.4 q 0,12.45 -8.8,21.2 -8.75,8.8 -21.2,8.8 -12.45,0 -21.25,-8.8 -8.75,-8.75 -8.75,-21.2 0,-12.45 8.75,-21.25 8.8,-8.75 21.25,-8.75 12.45,0 21.2,8.75 8.8,8.8 8.8,21.25"
       id="path59"
       style="fill:#ffffff;fill-opacity:1" />
    <path
       stroke="none"
       fill="#333333"
       d="m 885.52632,472.80702 -9,9 3,3 -2,2 -3,-3 -3,3 2,2 -2,2 -6,-6 2,-2 2,2 3,-3 -3,-3 2,-2 3,3 9,-9 2,2"
       id="path60"
       style="fill:#ffffff;fill-opacity:1" />
    <path
       stroke="none"
       fill="#333333"
       d="m 841.52632,512.80702 9,-9 -3,-3 2,-2 3,3 3,-3 -2,-2 2,-2 6,6 -2,2 -2,-2 -3,3 3,3 -2,2 -3,-3 -9,9 -2,-2"
       id="path61"
       style="fill:#ffffff;fill-opacity:1" />
    <path
       stroke="none"
       fill="#333333"
       d="m 885.52632,512.80702 -2,2 -9,-9 -3,3 -2,-2 3,-3 -3,-3 -2,2 -2,-2 6,-6 2,2 -2,2 3,3 3,-3 2,2 -3,3 9,9"
       id="path62"
       style="fill:#ffffff;fill-opacity:1" />
  </g>
</svg>
