<?xml version="1.0" encoding="UTF-8" standalone="no"?>
<svg
   version="1.1"
   id="svg344"
   width="52"
   height="36"
   xmlns="http://www.w3.org/2000/svg"
   xmlns:svg="http://www.w3.org/2000/svg">
  <defs
     id="defs1" />
  <path
     stroke="none"
     fill="#333333"
     d="M 52,12 H 50 V 2 H 40 V 0 H 52 V 12 M 0,12 V 0 H 12 V 2 H 2 V 12 H 0 M 4,4 h 8 V 6 H 6 v 6 H 4 V 4 m 44,0 v 8 H 46 V 6 H 40 V 4 h 8 m 0,28 h -8 v -2 h 6 v -6 h 2 v 8 m 4,-8 V 36 H 40 V 34 H 50 V 24 h 2 M 0,24 h 2 v 10 h 10 v 2 H 0 V 24 m 4,8 v -8 h 2 v 6 h 6 v 2 H 4"
     id="path174"
     style="fill:#ffffff;fill-opacity:1" />
</svg>
