<?xml version="1.0" encoding="UTF-8" standalone="no"?>
<svg
   version="1.1"
   id="svg344"
   width="32"
   height="32"
   xmlns="http://www.w3.org/2000/svg"
   xmlns:svg="http://www.w3.org/2000/svg">
  <defs
     id="defs1" />
  <path
     stroke="none"
     fill="#333333"
     d="m 18,16 q 0,0.85 -0.6,1.4 Q 16.85,18 16,18 15.15,18 14.55,17.4 14,16.85 14,16 14,15.15 14.55,14.55 15.15,14 16,14 q 0.85,0 1.4,0.55 0.6,0.6 0.6,1.45 m 8,-6 -4,-4 6,-6 4,4 -6,6 m 0,12 6,6 -4,4 -6,-6 4,-4 M 6,10 0,4 4,0 10,6 6,10 m 0,12 4,4 -6,6 -4,-4 6,-6"
     id="path291"
     style="fill:#ffffff;fill-opacity:1" />
</svg>
