<?xml version="1.0" encoding="UTF-8" standalone="no"?>
<svg
   version="1.1"
   id="svg344"
   width="64"
   height="40"
   xmlns="http://www.w3.org/2000/svg"
   xmlns:svg="http://www.w3.org/2000/svg">
  <defs
     id="defs1" />
  <path
     stroke="none"
     fill="#333333"
     d="m 34,20 q 0,0.85 -0.6,1.4 Q 32.85,22 32,22 31.15,22 30.55,21.4 30,20.85 30,20 30,19.15 30.55,18.55 31.15,18 32,18 32.85,18 33.4,18.55 34,19.15 34,20 M 20,28 H 0 V 24 H 22 L 32,34 42,24 h 22 v 4 H 44 L 32,40 20,28 M 20,12 32,0 44,12 h 20 v 4 H 42 L 32,6 22,16 H 0 v -4 h 20"
     id="path307"
     style="fill:#ffffff;fill-opacity:1" />
</svg>
