<?xml version="1.0" encoding="UTF-8" standalone="no"?>
<svg
   version="1.1"
   id="svg344"
   width="51.999981"
   height="52"
   xmlns="http://www.w3.org/2000/svg"
   xmlns:svg="http://www.w3.org/2000/svg">
  <defs
     id="defs1" />
  <path
     stroke="none"
     fill="#333333"
     d="m 43.99998,8 h -14 V 6 h 16 v 16 h -2 V 8 m 0,36 V 30 h 2 v 16 h -16 v -2 h 14 M 0,25 H 10 V 10 H 24.99998 V 0 h 2 v 10 h 15 v 15 h 10 v 2 h -10 v 15 h -15 v 10 h -2 V 42 H 10 V 27 H 0 V 25 M 39.99998,40 V 12 H 12 V 40 H 39.99998 M 8,8 V 22 H 6 V 6 H 22 V 8 H 8 m 0,36 h 14 v 2 H 6 V 30 h 2 v 14"
     id="path273"
     style="fill:#ffffff;fill-opacity:1" />
</svg>
