<?xml version="1.0" encoding="UTF-8" standalone="no"?>
<svg
   version="1.1"
   id="svg344"
   width="28"
   height="28"
   xmlns="http://www.w3.org/2000/svg"
   xmlns:svg="http://www.w3.org/2000/svg">
  <defs
     id="defs1" />
  <path
     stroke="none"
     fill="#333333"
     d="M 6.9,6.9 6.85,6.95 Q 4.7,9.15 4.2,12 H 8 v 4 H 4.2 q 0.5,2.9 2.7,5.1 2.2,2.2 5.1,2.75 V 20 h 4 v 3.85 q 2.9,-0.6 5.05,-2.75 L 21.1,21.05 Q 23.25,18.9 23.85,16 H 20 v -4 h 3.85 Q 23.3,9.1 21.1,6.9 18.9,4.7 16,4.2 V 8 H 12 V 4.2 Q 9.15,4.7 6.95,6.85 L 6.9,6.9 M 16,14 q 0,0.85 -0.6,1.4 Q 14.85,16 14,16 13.15,16 12.55,15.4 12,14.85 12,14 12,13.15 12.55,12.55 13.15,12 14,12 14.85,12 15.4,12.55 16,13.15 16,14 M 23.9,4.05 Q 28,8.15 28,14 28,19.8 23.9,23.9 19.8,28 14,28 8.15,28 4.05,23.9 0.7,20.55 0.15,16 0,15.05 0,14 0,12.95 0.15,12 0.7,7.45 4.05,4.1 L 4.1,4.05 Q 8.2,0 14,0 q 5.8,0 9.9,4.05"
     id="path177"
     style="fill:#ffffff;fill-opacity:1" />
</svg>
