<?xml version="1.0" encoding="UTF-8" standalone="no"?>
<svg
   version="1.1"
   id="svg344"
   width="47.999981"
   height="40"
   xmlns="http://www.w3.org/2000/svg"
   xmlns:svg="http://www.w3.org/2000/svg">
  <defs
     id="defs1" />
  <g
     id="g14"
     transform="translate(-977.52632,-817.80702)"
     style="fill:#ffffff;fill-opacity:1">
    <path
       stroke="none"
       fill="#333333"
       d="m 1011.5263,817.80702 h 4 v 40 h -4 v -40"
       id="path309"
       style="fill:#ffffff;fill-opacity:1" />
    <path
       stroke="none"
       fill="#333333"
       d="m 1015.5263,817.80702 h 10 v 4 h -10 v -4"
       id="path310"
       style="fill:#ffffff;fill-opacity:1" />
    <path
       stroke="none"
       fill="#333333"
       d="m 1015.5263,825.80702 h 8 v 4 h -8 v -4"
       id="path311"
       style="fill:#ffffff;fill-opacity:1" />
    <path
       stroke="none"
       fill="#333333"
       d="m 1015.5263,833.80702 h 6 v 4 h -6 v -4"
       id="path312"
       style="fill:#ffffff;fill-opacity:1" />
    <path
       stroke="none"
       fill="#333333"
       d="m 1015.5263,841.80702 h 4 v 4 h -4 v -4"
       id="path313"
       style="fill:#ffffff;fill-opacity:1" />
    <path
       stroke="none"
       fill="#333333"
       d="m 1015.5263,849.80702 h 2 v 4 h -2 v -4"
       id="path314"
       style="fill:#ffffff;fill-opacity:1" />
    <path
       stroke="none"
       fill="#333333"
       d="m 991.52632,817.80702 v 40 h -4 v -40 h 4"
       id="path315"
       style="fill:#ffffff;fill-opacity:1" />
    <path
       stroke="none"
       fill="#333333"
       d="m 987.52632,817.80702 v 4 h -10 v -4 h 10"
       id="path316"
       style="fill:#ffffff;fill-opacity:1" />
    <path
       stroke="none"
       fill="#333333"
       d="m 987.52632,825.80702 v 4 h -8 v -4 h 8"
       id="path317"
       style="fill:#ffffff;fill-opacity:1" />
    <path
       stroke="none"
       fill="#333333"
       d="m 987.52632,833.80702 v 4 h -6 v -4 h 6"
       id="path318"
       style="fill:#ffffff;fill-opacity:1" />
    <path
       stroke="none"
       fill="#333333"
       d="m 987.52632,841.80702 v 4 h -4 v -4 h 4"
       id="path319"
       style="fill:#ffffff;fill-opacity:1" />
    <path
       stroke="none"
       fill="#333333"
       d="m 987.52632,849.80702 v 4 h -2 v -4 h 2"
       id="path320"
       style="fill:#ffffff;fill-opacity:1" />
    <path
       stroke="none"
       fill="#333333"
       d="m 1003.5263,837.80702 q 0,0.85 -0.6,1.4 -0.55,0.6 -1.4,0.6 -0.85,0 -1.45,-0.6 -0.54998,-0.55 -0.54998,-1.4 0,-0.85 0.54998,-1.45 0.6,-0.55 1.45,-0.55 0.85,0 1.4,0.55 0.6,0.6 0.6,1.45"
       id="path321"
       style="fill:#ffffff;fill-opacity:1" />
  </g>
</svg>
