<?xml version="1.0" encoding="UTF-8" standalone="no"?>
<svg
   version="1.1"
   id="svg344"
   width="38"
   height="38"
   xmlns="http://www.w3.org/2000/svg"
   xmlns:svg="http://www.w3.org/2000/svg">
  <defs
     id="defs1" />
  <path
     stroke="none"
     fill="#333333"
     d="m 24,0 14,14 -1.45,1.45 -14,-14 L 24,0 m -4,7 v 6 H 18 V 7 h 2 M 0,14 14,0 15.4,1.4 1.4,15.4 0,14 m 21,5 q 0,0.85 -0.6,1.4 Q 19.85,21 19,21 18.15,21 17.55,20.4 17,19.85 17,19 17,18.15 17.55,17.55 18.15,17 19,17 19.85,17 20.4,17.55 21,18.15 21,19 M 7,18 h 6 v 2 H 7 v -2 m 18,0 h 6 v 2 h -6 v -2 m -5,7 v 6 h -2 v -6 h 2 M 38,24 24,38 22.6,36.6 36.6,22.6 38,24 M 14,38 0,24 1.4,22.6 15.4,36.6 14,38"
     id="path294"
     style="fill:#ffffff;fill-opacity:1" />
</svg>
