<?xml version="1.0" encoding="UTF-8" standalone="no"?>
<svg
   version="1.1"
   id="svg344"
   width="60"
   height="48"
   xmlns="http://www.w3.org/2000/svg"
   xmlns:svg="http://www.w3.org/2000/svg">
  <defs
     id="defs1" />
  <path
     stroke="none"
     fill="#333333"
     d="M 36,0 41,5 38,8 34,4 H 26 L 22,8 19,5 24,0 H 36 M 30,26 Q 29.15,26 28.6,25.4 28,24.85 28,24 28,23.15 28.55,22.6 L 28.6,22.55 Q 29.15,22 30,22 q 0.85,0 1.45,0.55 0.55,0.6 0.55,1.45 0,0.85 -0.55,1.4 L 31.4,25.45 Q 30.85,26 30,26 m 6,22 H 24 l -5,-5 3,-3 4,4 h 8 l 4,-4 3,3 -5,5 M 0,24 6,18 8,20 4,24 8,28 6,30 0,24 m 60,0 -6,6 -2,-2 4,-4 -4,-4 2,-2 6,6"
     id="path203"
     style="fill:#ffffff;fill-opacity:1" />
</svg>
