<?xml version="1.0" encoding="UTF-8" standalone="no"?>
<svg
   version="1.1"
   id="svg344"
   width="40"
   height="40"
   xmlns="http://www.w3.org/2000/svg"
   xmlns:svg="http://www.w3.org/2000/svg">
  <defs
     id="defs1" />
  <path
     stroke="none"
     fill="#333333"
     d="m 18,0 h 4 V 4 H 18 V 0 m 2,14 -6,-6 2,-2 4,4 4,-4 2,2 -6,6 m -6,6 -6,6 -2,-2 4,-4 -4,-4 2,-2 6,6 M 0,18 h 4 v 4 H 0 v -4 m 26,2 6,-6 2,2 -4,4 4,4 -2,2 -6,-6 m -6,6 6,6 -2,2 -4,-4 -4,4 -2,-2 6,-6 m -2,10 h 4 v 4 H 18 V 36 M 36,18 h 4 v 4 h -4 v -4"
     id="path239"
     style="fill:#ffffff;fill-opacity:1" />
</svg>
