<?xml version="1.0" encoding="UTF-8" standalone="no"?>
<svg
   version="1.1"
   id="svg344"
   width="60"
   height="60"
   xmlns="http://www.w3.org/2000/svg"
   xmlns:svg="http://www.w3.org/2000/svg">
  <defs
     id="defs1" />
  <path
     stroke="none"
     fill="#333333"
     d="M 8.75,8.75 Q 16.85,0.7 28,0.05 L 30,0 32,0.05 q 11.15,0.65 19.2,8.7 8.1,8.1 8.75,19.25 h -2 Q 57.3,17.65 49.8,10.2 42.35,2.7 32,2.1 L 30,2 28,2.05 Q 17.65,2.7 10.2,10.15 L 10.15,10.2 Q 7.7,12.65 6,15.4 2.5,21.05 2.05,28 h -2 Q 0.6,18.9 6,11.9 L 8.75,8.75 M 0,0 H 8 V 4 H 4 V 8 H 0 V 0 M 51.2,51.2 Q 43.15,59.3 32,59.95 L 30,60 28,59.95 Q 16.85,59.3 8.75,51.2 L 6,48.1 Q 0.6,41.05 0.05,32 H 2.1 q 0.4,6.9 3.9,12.55 1.7,2.75 4.2,5.25 7.45,7.5 17.8,8.15 L 30,58 32,57.95 Q 42.35,57.3 49.8,49.8 57.3,42.35 57.95,32 h 2 Q 59.3,43.15 51.2,51.2 M 18.65,41.3 Q 14.7,37.35 14.1,32 h 2.05 q 0.55,4.55 3.95,7.9 3.35,3.35 7.9,4 v 2 q -5.35,-0.6 -9.35,-4.6 m 0,-22.65 q 4,-3.95 9.35,-4.55 v 2.05 q -4.55,0.55 -7.9,3.9 L 20.05,20.1 Q 16.7,23.45 16.15,28 H 14.1 q 0.6,-5.35 4.55,-9.35 M 32,30.05 q 0,0.8 -0.6,1.35 -0.55,0.6 -1.35,0.6 h -0.1 q -0.8,0 -1.4,-0.6 Q 28,30.85 28,30.05 v -0.1 q 0,-0.8 0.55,-1.4 0.6,-0.55 1.4,-0.55 h 0.1 q 0.8,0 1.35,0.55 0.6,0.6 0.6,1.4 v 0.1 m 9.3,-11.4 q 4,4 4.6,9.35 h -2 Q 43.25,23.45 39.9,20.1 36.55,16.7 32,16.15 V 14.1 q 5.35,0.6 9.3,4.55 M 60,0 V 8 H 56 V 4 H 52 V 0 h 8 M 41.3,41.3 q -3.95,4 -9.3,4.6 v -2 q 4.55,-0.6 7.9,-4 3.4,-3.35 4,-7.9 h 2 q -0.6,5.35 -4.6,9.3 M 60,60 h -8 v -4 h 4 v -4 h 4 v 8 M 0,60 v -8 h 4 v 4 h 4 v 4 H 0"
     id="path245"
     style="fill:#ffffff;fill-opacity:1" />
</svg>
