<?xml version="1.0" encoding="UTF-8" standalone="no"?>
<svg
   version="1.1"
   id="svg344"
   width="59.499981"
   height="59.5"
   xmlns="http://www.w3.org/2000/svg"
   xmlns:svg="http://www.w3.org/2000/svg">
  <defs
     id="defs1" />
  <path
     stroke="none"
     fill="#333333"
     d="m 48.14998,48.15 q 6.15,-6.15 7.35,-14.4 h 4 q -1.2,9.9 -8.55,17.2 -7.3,7.35 -17.2,8.55 v -4 q 8.25,-1.2 14.4,-7.35 m -36.79998,0 q 6.15,6.15 14.4,7.35 v 4 Q 15.85,58.3 8.5,50.95 1.2,43.65 0,33.75 h 4.05 q 1.15,8.25 7.3,14.4 m 36.79998,-36.8 q -6.15,-6.15 -14.4,-7.3 V 0 q 9.9,1.2 17.2,8.5 7.35,7.35 8.55,17.25 h -4 q -1.2,-8.25 -7.35,-14.4 M 11.35,11.35 Q 5.2,17.5 4.05,25.75 H 0 Q 1.2,15.85 8.5,8.5 15.85,1.2 25.75,0 v 4.05 q -8.25,1.15 -14.4,7.3"
     id="path161"
     style="fill:#ffffff;fill-opacity:1" />
</svg>
