<?xml version="1.0" encoding="UTF-8" standalone="no"?>
<svg
   version="1.1"
   id="svg344"
   width="64"
   height="64"
   xmlns="http://www.w3.org/2000/svg"
   xmlns:svg="http://www.w3.org/2000/svg">
  <defs
     id="defs1" />
  <g
     id="g6"
     transform="translate(-1107.5263,-529.80702)"
     style="fill:#ffffff;fill-opacity:1">
    <path
       stroke="none"
       fill="#333333"
       d="m 1155.5263,559.80702 h 16 v 4 h -16 v -4 m -14,-30 v 16 h -4 v -16 h 4 m -34,30 h 16 v 4 h -16 v -4 m 34,18 v 16 h -4 v -16 h 4"
       id="path98"
       style="fill:#ffffff;fill-opacity:1" />
    <path
       stroke="none"
       fill="#333333"
       d="m 1159.3263,542.00702 q -8.2,-8.2 -19.8,-8.2 -11.6,0 -19.8,8.15 l -0.05,0.05 q -8.15,8.2 -8.15,19.8 0,11.6 8.2,19.8 8.2,8.2 19.8,8.2 11.6,0 19.8,-8.2 8.2,-8.2 8.2,-19.8 0,-11.6 -8.2,-19.8 m 10.2,19.8 q 0,12.45 -8.8,21.2 -8.75,8.8 -21.2,8.8 -12.45,0 -21.25,-8.8 -8.75,-8.75 -8.75,-21.2 0,-12.45 8.75,-21.25 8.8,-8.75 21.25,-8.75 12.45,0 21.2,8.75 8.8,8.8 8.8,21.25"
       id="path99"
       style="fill:#ffffff;fill-opacity:1" />
  </g>
</svg>
