<?xml version="1.0" encoding="UTF-8" standalone="no"?>
<svg
   version="1.1"
   id="svg344"
   width="52"
   height="52"
   xmlns="http://www.w3.org/2000/svg"
   xmlns:svg="http://www.w3.org/2000/svg">
  <defs
     id="defs1" />
  <path
     stroke="none"
     fill="#333333"
     d="m 36,18 -4,4 -2,-2 4,-4 2,2 m 8,-8 -4,4 -2,-2 4,-4 2,2 M 52,2 48,6 46,4 50,0 52,2 M 28,26 q 0,0.85 -0.6,1.4 Q 26.85,28 26,28 25.15,28 24.55,27.4 24,26.85 24,26 24,25.15 24.55,24.55 25.15,24 26,24 q 0.85,0 1.4,0.55 0.6,0.6 0.6,1.45 m 16,16 -2,2 -4,-4 2,-2 4,4 m -8,-8 -2,2 -4,-4 2,-2 4,4 m 16,16 -2,2 -4,-4 2,-2 4,4 M 0,2 2,0 6,4 4,6 0,2 m 8,8 2,-2 4,4 -2,2 -4,-4 m 8,8 2,-2 4,4 -2,2 -4,-4 M 0,50 4,46 6,48 2,52 0,50 m 8,-8 4,-4 2,2 -4,4 -2,-2 m 8,-8 4,-4 2,2 -4,4 -2,-2"
     id="path297"
     style="fill:#ffffff;fill-opacity:1" />
</svg>
