<?xml version="1.0" encoding="UTF-8" standalone="no"?>
<svg
   version="1.1"
   id="svg344"
   width="60"
   height="60"
   xmlns="http://www.w3.org/2000/svg"
   xmlns:svg="http://www.w3.org/2000/svg">
  <defs
     id="defs1" />
  <g
     id="g5"
     transform="translate(-1040.5263,-531.80702)"
     style="fill:#ffffff;fill-opacity:1">
    <path
       stroke="none"
       fill="#333333"
       d="m 1070.5263,587.80702 q 7.25,0 13.05,-3.4 l 2,3.45 q -6.7,3.95 -15.05,3.95 -8.3,0 -15,-3.9 l 2,-3.5 q 5.8,3.4 13,3.4 m -26,-26 q 0,7.3 3.45,13.1 l -3.45,2 q -4,-6.7 -4,-15.1 0,-8.35 3.95,-15 l 3.45,2 q -3.4,5.8 -3.4,13 m 52,0 q 0,-7.25 -3.4,-13 l 3.45,-2 q 3.95,6.65 3.95,15 0,8.4 -4,15.1 l -3.45,-2 q 3.45,-5.85 3.45,-13.1 m -26,-26 q -7.25,0 -13.05,3.45 l -2,-3.5 q 6.7,-3.95 15.05,-3.95 8.35,0 15.05,3.95 l -2,3.5 q -5.8,-3.45 -13.05,-3.45"
       id="path91"
       style="fill:#ffffff;fill-opacity:1" />
    <path
       stroke="none"
       fill="#333333"
       d="m 1063.4263,554.70702 -0.05,0.05 q -2.85,2.95 -2.85,7.05 v 0.05 q 0,4.1 2.9,7.05 2.95,2.9 7.1,2.9 4.15,0 7.05,-2.9 l 0.05,-0.05 q 2.9,-2.9 2.9,-7.05 0,-4.15 -2.9,-7.1 -2.95,-2.9 -7.05,-2.9 h -0.05 q -4.1,0 -7.05,2.85 l -0.05,0.05 m 9.1,7.1 q 0,0.85 -0.6,1.4 -0.55,0.6 -1.4,0.6 -0.85,0 -1.45,-0.6 -0.55,-0.55 -0.55,-1.4 0,-0.85 0.55,-1.45 0.6,-0.55 1.45,-0.55 0.85,0 1.4,0.55 0.6,0.6 0.6,1.45 m 7.9,-9.95 q 4.1,4.1 4.1,9.95 0,5.8 -4.1,9.9 -4.1,4.1 -9.9,4.1 -5.85,0 -9.95,-4.1 -4.05,-4.1 -4.05,-9.9 0,-5.8 4.05,-9.9 l 0.05,-0.05 q 4.1,-4.05 9.9,-4.05 5.8,0 9.9,4.05"
       id="path92"
       style="fill:#ffffff;fill-opacity:1" />
  </g>
</svg>
