<?xml version="1.0" encoding="UTF-8" standalone="no"?>
<svg
   version="1.1"
   id="svg344"
   width="56"
   height="56"
   xmlns="http://www.w3.org/2000/svg"
   xmlns:svg="http://www.w3.org/2000/svg">
  <defs
     id="defs1" />
  <g
     id="g9"
     transform="translate(-1111.5263,-602.80702)"
     style="fill:#ffffff;fill-opacity:1">
    <g
       id="g354"
       style="fill:#ffffff;fill-opacity:1">
      <path
         stroke="none"
         fill="#333333"
         d="m 1139.5263,618.80702 -14,-14 2,-2 12,12 12,-12 2,2 -14,14 m -12,12 -14,14 -2,-2 12,-12 -12,-12 2,-2 14,14 m 24,0 14,-14 2,2 -12,12 12,12 -2,2 -14,-14 m -12,12 14,14 -2,2 -12,-12 -12,12 -2,-2 14,-14"
         id="path234"
         style="fill:#ffffff;fill-opacity:1" />
      <path
         stroke="none"
         fill="#333333"
         d="m 1133.5263,627.20702 2.4,-2.4 3.6,3.6 3.6,-3.6 2.4,2.4 -3.6,3.6 3.6,3.6 -2.4,2.4 -3.6,-3.6 -3.6,3.6 -2.4,-2.4 3.6,-3.6 -3.6,-3.6"
         id="path235"
         style="fill:#ffffff;fill-opacity:1" />
    </g>
  </g>
</svg>
