<?xml version="1.0" encoding="UTF-8" standalone="no"?>
<svg
   version="1.1"
   id="svg344"
   width="60"
   height="60"
   xmlns="http://www.w3.org/2000/svg"
   xmlns:svg="http://www.w3.org/2000/svg">
  <defs
     id="defs1" />
  <g
     id="g369"
     transform="translate(-695.52632,-669.80702)"
     style="fill:#ffffff;fill-opacity:1">
    <path
       stroke="none"
       fill="#333333"
       d="m 755.52632,699.80702 q 0,2.85 -0.45,5.55 -1.55,8.9 -8.35,15.65 -6.75,6.8 -15.65,8.35 l -5.55,0.45 -5.5,-0.45 q -8.95,-1.55 -15.75,-8.35 -6.75,-6.75 -8.25,-15.65 -0.5,-2.7 -0.5,-5.55 0,-2.85 0.5,-5.5 1.5,-8.95 8.25,-15.75 6.8,-6.75 15.75,-8.25 l 5.5,-0.5 5.55,0.5 q 8.9,1.5 15.65,8.25 6.8,6.8 8.35,15.75 0.45,2.65 0.45,5.5 m -10.2,-19.8 q -6.85,-6.85 -16,-7.95 l -3.8,3.75 -3.75,-3.75 q -9.2,1.1 -16.05,7.9 l -0.05,0.05 q -6.8,6.85 -7.9,16.05 l 3.75,3.75 -3.75,3.8 q 1.1,9.15 7.95,16 6.85,6.85 16.05,8 l 3.75,-3.8 3.8,3.8 q 9.15,-1.15 16,-8 6.85,-6.85 8,-16 l -3.8,-3.8 3.8,-3.75 q -1.15,-9.2 -8,-16.05"
       id="path210"
       style="fill:#ffffff;fill-opacity:1" />
    <path
       stroke="none"
       fill="#333333"
       d="m 724.52632,671.80702 h 2 v 56 h -2 v -56"
       id="path211"
       style="fill:#ffffff;fill-opacity:1" />
    <path
       stroke="none"
       fill="#333333"
       d="m 753.52632,698.80702 v 2 h -56 v -2 h 56"
       id="path212"
       style="fill:#ffffff;fill-opacity:1" />
  </g>
</svg>
