<?xml version="1.0" encoding="UTF-8" standalone="no"?>
<svg
   version="1.1"
   id="svg344"
   width="12"
   height="36"
   xmlns="http://www.w3.org/2000/svg"
   xmlns:svg="http://www.w3.org/2000/svg">
  <defs
     id="defs1" />
  <path
     stroke="none"
     fill="#333333"
     d="M 6,0 12,6 10,8 6,4 2,8 0,6 6,0 M 8,18 Q 8,18.85 7.4,19.4 6.85,20 6,20 5.15,20 4.55,19.4 4,18.85 4,18 4,17.15 4.55,16.55 5.15,16 6,16 6.85,16 7.4,16.55 8,17.15 8,18 m -2,18 -6,-6 2,-2 4,4 4,-4 2,2 -6,6"
     id="path180"
     style="fill:#ffffff;fill-opacity:1" />
</svg>
