<?xml version="1.0" encoding="UTF-8" standalone="no"?>
<svg
   version="1.1"
   id="svg344"
   width="58.150002"
   height="58.099998"
   xmlns="http://www.w3.org/2000/svg"
   xmlns:svg="http://www.w3.org/2000/svg">
  <defs
     id="defs1" />
  <g
     id="g374"
     transform="translate(-1455.4263,-532.70702)"
     style="fill:#ffffff;fill-opacity:1">
    <path
       stroke="none"
       fill="#333333"
       d="m 1466.1263,543.40702 q -2.5,2.5 -4.2,5.4 -1.7,2.9 -2.55,6.25 l -3.9,-1.1 q 1,-3.8 2.95,-7.15 1.95,-3.35 4.85,-6.25 2.9,-2.9 6.25,-4.85 3.4,-2 7.2,-3 l 1.1,3.9 q -3.35,0.85 -6.3,2.6 -2.85,1.65 -5.4,4.2 m 36.8,0 q -2.5,-2.5 -5.25,-4.2 -3.05,-1.8 -6.35,-2.6 l 1,-3.9 q 3.85,0.95 7.3,3.1 3.25,1.85 6.15,4.75 2.9,2.9 4.8,6.2 2,3.4 3,7.3 l -3.85,1.05 q -0.9,-3.4 -2.65,-6.35 -1.65,-2.85 -4.15,-5.35 m -0.05,36.75 q 2.55,-2.55 4.2,-5.3 1.8,-3 2.65,-6.35 l 3.85,1.05 q -1,3.8 -3.05,7.25 -1.9,3.3 -4.8,6.2 -2.9,2.9 -6.15,4.75 -3.45,2.05 -7.25,3.05 l -1,-3.9 q 3.3,-0.8 6.25,-2.55 2.8,-1.7 5.3,-4.2 m -20.35,-15.35 -0.3,0.7 -0.7,0.3 q -0.4,0 -0.7,-0.3 -0.3,-0.3 -0.3,-0.7 0,-0.4 0.3,-0.7 0.3,-0.3 0.7,-0.3 0.4,0 0.7,0.3 l 0.3,0.7 m 0,-6 -0.3,0.7 -0.7,0.3 q -0.4,0 -0.7,-0.3 -0.3,-0.3 -0.3,-0.7 0,-0.4 0.3,-0.7 0.3,-0.3 0.7,-0.3 0.4,0 0.7,0.3 l 0.3,0.7 m 6,0 -0.3,0.7 -0.7,0.3 q -0.4,0 -0.7,-0.3 -0.3,-0.3 -0.3,-0.7 0,-0.4 0.3,-0.7 0.3,-0.3 0.7,-0.3 l 0.7,0.3 0.3,0.7 m 0,6 -0.3,0.7 -0.7,0.3 q -0.4,0 -0.7,-0.3 -0.3,-0.3 -0.3,-0.7 0,-0.4 0.3,-0.7 0.3,-0.3 0.7,-0.3 l 0.7,0.3 0.3,0.7 m -22.35,15.35 q 2.5,2.5 5.35,4.25 2.95,1.65 6.25,2.55 l -1.05,3.85 q -3.8,-1 -7.15,-2.95 -3.35,-1.95 -6.25,-4.85 -2.9,-2.9 -4.8,-6.2 -2.05,-3.45 -3.1,-7.2 l 3.9,-1 q 0.85,3.25 2.65,6.25 1.65,2.75 4.2,5.3"
       id="path243"
       style="fill:#ffffff;fill-opacity:1" />
  </g>
</svg>
