<?xml version="1.0" encoding="UTF-8" standalone="no"?>
<svg
   version="1.1"
   id="svg344"
   width="41.799999"
   height="40"
   xmlns="http://www.w3.org/2000/svg"
   xmlns:svg="http://www.w3.org/2000/svg">
  <defs
     id="defs1" />
  <path
     stroke="none"
     fill="#333333"
     d="m 13.8,16.9 -0.05,0.05 Q 10.9,19.9 10.9,24 v 0.05 q 0,2.05 0.7,3.8 0.75,1.75 2.2,3.25 l 0.25,0.25 Q 16.9,34 20.9,34 q 4,0 6.85,-2.7 l 0.2,-0.2 0.05,-0.05 q 1.45,-1.45 2.2,-3.25 0.7,-1.75 0.7,-3.8 0,-4.15 -2.9,-7.1 -2.2,-2.2 -5.1,-2.7 L 20.95,14 H 20.9 l -2,0.2 q -2.85,0.5 -5.05,2.65 L 13.8,16.9 M 18.9,0 h 4 v 10.15 q 4.55,0.55 7.9,3.9 4.1,4.1 4.1,9.95 0,3.5 -1.5,6.4 l 8.4,6.7 -2.9,2.9 -8,-6.2 -0.1,0.1 Q 26.7,38 20.9,38 15.05,38 10.95,33.9 L 10.85,33.8 2.9,40 0,37.1 8.4,30.4 Q 6.9,27.5 6.9,24 q 0,-5.8 4.05,-9.9 L 11,14.05 q 3.35,-3.35 7.9,-3.9 V 0 m 4,24 q 0,0.85 -0.6,1.4 Q 21.75,26 20.9,26 20.05,26 19.45,25.4 18.9,24.85 18.9,24 q 0,-0.85 0.55,-1.45 0.6,-0.55 1.45,-0.55 0.85,0 1.4,0.55 0.6,0.6 0.6,1.45"
     id="path207"
     style="fill:#ffffff;fill-opacity:1" />
</svg>
