<?xml version="1.0" encoding="UTF-8" standalone="no"?>
<svg
   version="1.1"
   id="svg344"
   width="36"
   height="36"
   xmlns="http://www.w3.org/2000/svg"
   xmlns:svg="http://www.w3.org/2000/svg">
  <defs
     id="defs1" />
  <path
     stroke="none"
     fill="#333333"
     d="M 36,6 H 34 V 2 H 30 V 0 h 6 V 6 M 32,4 V 14 H 30 V 6 H 22 V 4 H 32 M 0,6 V 0 H 6 V 2 H 2 V 6 H 0 M 32,32 H 22 v -2 h 8 v -8 h 2 V 32 M 4,4 H 14 V 6 H 6 v 8 H 4 V 4 M 4,32 V 22 h 2 v 8 h 8 v 2 H 4 M 0,30 h 2 v 4 h 4 v 2 H 0 v -6 m 36,0 v 6 h -6 v -2 h 4 v -4 h 2"
     id="path80"
     style="fill:#ffffff;fill-opacity:1" />
</svg>
