<?xml version="1.0" encoding="UTF-8" standalone="no"?>
<svg
   version="1.1"
   id="svg344"
   width="59.999981"
   height="60"
   xmlns="http://www.w3.org/2000/svg"
   xmlns:svg="http://www.w3.org/2000/svg">
  <defs
     id="defs1" />
  <g
     id="g366"
     transform="translate(-971.52632,-462.80702)"
     style="fill:#ffffff;fill-opacity:1">
    <path
       stroke="none"
       fill="#333333"
       d="m 1001.5263,466.80702 q -7.84998,0 -13.99998,4 l -2.85,-2.85 q 7.35,-5.15 16.84998,-5.15 9.5,0 16.9,5.15 l -2.9,2.85 q -6.15,-4 -14,-4 m 26,26 q 0,-7.85 -4,-14 l 2.9,-2.85 q 5.1,7.35 5.1,16.85 0,9.5 -5.1,16.9 l -2.9,-2.9 q 4,-6.15 4,-14 m 4,-26 -12,12 h -4 v -4 l 12,-12 4,4 m -55.99998,-4 12,12 v 4 h -4 l -12,-12 4,-4 m 0,30 q 0,7.85 4,14 l -2.85,2.9 q -5.15,-7.4 -5.15,-16.9 0,-9.5 5.15,-16.85 l 2.85,2.85 q -4,6.15 -4,14 m 24,0 1.99998,-2 2,2 -2,2 -1.99998,-2 m 1.99998,26 q 7.85,0 14,-4 l 2.9,2.9 q -7.4,5.1 -16.9,5.1 -9.49998,0 -16.84998,-5.1 l 2.85,-2.9 q 6.15,4 13.99998,4 m -25.99998,4 -4,-4 12,-12 h 4 v 4 l -12,12 m 51.99998,0 -12,-12 v -4 h 4 l 12,12 -4,4"
       id="path77"
       style="fill:#ffffff;fill-opacity:1" />
  </g>
</svg>
