<?xml version="1.0" encoding="UTF-8" standalone="no"?>
<svg
   version="1.1"
   id="svg344"
   width="64"
   height="28"
   xmlns="http://www.w3.org/2000/svg"
   xmlns:svg="http://www.w3.org/2000/svg">
  <defs
     id="defs1" />
  <path
     stroke="none"
     fill="#333333"
     d="M 62,0 64,2 52,14 64,26 62,28 48,14 62,0 M 34,14 q 0,0.85 -0.6,1.4 Q 32.85,16 32,16 31.15,16 30.55,15.4 30,14.85 30,14 30,13.15 30.55,12.55 31.15,12 32,12 q 0.85,0 1.4,0.55 0.6,0.6 0.6,1.45 m -6,0 q 0,0.85 -0.6,1.4 Q 26.85,16 26,16 25.15,16 24.55,15.4 24,14.85 24,14 24,13.15 24.55,12.55 25.15,12 26,12 q 0.85,0 1.4,0.55 0.6,0.6 0.6,1.45 m 12,0 q 0,0.85 -0.6,1.4 Q 38.85,16 38,16 37.15,16 36.55,15.4 36,14.85 36,14 36,13.15 36.55,12.55 37.15,12 38,12 38.85,12 39.4,12.55 40,13.15 40,14 M 2,0 16,14 2,28 0,26 12,14 0,2 2,0"
     id="path304"
     style="fill:#ffffff;fill-opacity:1" />
</svg>
