<?xml version="1.0" encoding="UTF-8" standalone="no"?>
<svg
   version="1.1"
   id="svg344"
   width="36"
   height="36"
   xmlns="http://www.w3.org/2000/svg"
   xmlns:svg="http://www.w3.org/2000/svg">
  <defs
     id="defs1" />
  <path
     stroke="none"
     fill="#333333"
     d="M 30,2 Q 31.65,2 32.85,3.2 34,4.35 34,6 v 8 H 30 V 6 H 22 V 2 h 8 m -2,14 h 8 v 4 h -8 v -4 m 2,18 h -8 v -4 h 8 v -8 h 4 v 8 q 0,1.65 -1.15,2.8 Q 31.65,34 30,34 M 16,8 V 0 h 4 V 8 H 16 M 6,2 h 8 V 6 H 6 v 8 H 2 V 6 Q 2,4.35 3.15,3.2 4.35,2 6,2 M 0,16 h 8 v 4 H 0 V 16 M 6,34 Q 4.35,34 3.15,32.8 2,31.65 2,30 v -8 h 4 v 8 h 8 v 4 H 6 m 10,-6 h 4 v 8 h -4 v -8"
     id="path169"
     style="fill:#ffffff;fill-opacity:1" />
</svg>
