<?xml version="1.0" encoding="UTF-8" standalone="no"?>
<svg
   version="1.1"
   id="svg344"
   width="60"
   height="60"
   xmlns="http://www.w3.org/2000/svg"
   xmlns:svg="http://www.w3.org/2000/svg">
  <defs
     id="defs1" />
  <g
     id="g362"
     transform="translate(-626.52632,-531.80702)"
     style="fill:#ffffff;fill-opacity:1">
    <path
       stroke="none"
       fill="#333333"
       d="m 666.52632,559.80702 h 18 v 4 h -18 v -4 m -38,0 h 18 v 4 h -18 v -4 m 30,2 v 28 h -4 v -28 h 4"
       id="path21"
       style="fill:#ffffff;fill-opacity:1" />
    <path
       stroke="none"
       fill="#333333"
       d="m 686.52632,561.80702 q 0,12.45 -8.8,21.2 -8.75,8.8 -21.2,8.8 -12.45,0 -21.25,-8.8 -8.75,-8.75 -8.75,-21.2 0,-12.45 8.75,-21.25 8.8,-8.75 21.25,-8.75 12.45,0 21.2,8.75 8.8,8.8 8.8,21.25 m -11.6,-18.4 q -7.6,-7.6 -18.4,-7.6 -10.8,0 -18.4,7.6 -7.6,7.6 -7.6,18.4 0,10.8 7.6,18.4 7.6,7.6 18.4,7.6 10.8,0 18.4,-7.6 7.6,-7.6 7.6,-18.4 0,-10.8 -7.6,-18.4"
       id="path22"
       style="fill:#ffffff;fill-opacity:1" />
  </g>
</svg>
