<?xml version="1.0" encoding="UTF-8" standalone="no"?>
<svg
   version="1.1"
   id="svg344"
   width="60"
   height="60"
   xmlns="http://www.w3.org/2000/svg"
   xmlns:svg="http://www.w3.org/2000/svg">
  <defs
     id="defs1" />
  <g
     id="g2"
     transform="translate(-1247.5263,-393.80702)"
     style="fill:#ffffff;fill-opacity:1">
    <path
       stroke="none"
       fill="#333333"
       d="m 1247.5263,397.80702 4,-4 20,20 -4,4 -20,-20 m 0,52 20,-20 4,4 -20,20 -4,-4 m 60,-52 -20,20 -4,-4 20,-20 4,4 m 0,52 -4,4 -20,-20 4,-4 20,20"
       id="path181"
       style="fill:#ffffff;fill-opacity:1" />
    <path
       stroke="none"
       fill="#333333"
       d="m 1247.5263,397.80702 4,-4 20,20 -4,4 -20,-20 m 0,52 20,-20 4,4 -20,20 -4,-4 m 60,-52 -20,20 -4,-4 20,-20 4,4 m 0,52 -4,4 -20,-20 4,-4 20,20"
       id="path182"
       style="fill:#ffffff;fill-opacity:1" />
  </g>
</svg>
