<?xml version="1.0" encoding="UTF-8" standalone="no"?>
<svg
   version="1.1"
   id="svg344"
   width="64"
   height="40"
   xmlns="http://www.w3.org/2000/svg"
   xmlns:svg="http://www.w3.org/2000/svg">
  <defs
     id="defs1" />
  <path
     stroke="none"
     fill="#333333"
     d="M 34.85,17.2 Q 33.65,16 32,16 30.35,16 29.2,17.2 28,18.35 28,20 28,21.65 29.2,22.85 30.35,24 32,24 33.65,24 34.85,22.85 36,21.65 36,20 36,18.35 34.85,17.2 M 60,20 Q 60,10.05 53.6,2.85 L 56.4,0 Q 64,8.4 64,20 64,31.6 56.35,40 l -2.8,-2.8 Q 60,29.95 60,20 m -20,0 q 0,3.3 -2.35,5.65 Q 35.3,28 32,28 28.7,28 26.35,25.65 24,23.3 24,20 24,16.7 26.35,14.35 28.7,12 32,12 35.3,12 37.65,14.35 40,16.7 40,20 M 4,20 q 0,9.95 6.45,17.2 L 7.6,40 Q 0,31.6 0,20 0,8.4 7.6,0 l 2.85,2.85 Q 4,10.05 4,20"
     id="path305"
     style="fill:#ffffff;fill-opacity:1" />
</svg>
