<?xml version="1.0" encoding="UTF-8" standalone="no"?>
<svg
   version="1.1"
   id="svg344"
   width="60"
   height="60"
   xmlns="http://www.w3.org/2000/svg"
   xmlns:svg="http://www.w3.org/2000/svg">
  <defs
     id="defs1" />
  <g
     id="g8"
     transform="translate(-1040.5263,-669.80702)"
     style="fill:#ffffff;fill-opacity:1">
    <path
       stroke="none"
       fill="#333333"
       d="m 1072.5263,699.80702 q 0,0.85 -0.6,1.4 -0.55,0.6 -1.4,0.6 -0.85,0 -1.45,-0.6 -0.55,-0.55 -0.55,-1.4 0,-0.85 0.55,-1.45 0.6,-0.55 1.45,-0.55 0.85,0 1.4,0.55 0.6,0.6 0.6,1.45"
       id="path222"
       style="fill:#ffffff;fill-opacity:1" />
    <path
       stroke="none"
       fill="#333333"
       d="m 1088.9263,681.40702 q -6.25,-6.25 -14.65,-7.35 l -3.75,3.75 -3.75,-3.75 q -8.4,1.1 -14.65,7.35 -6.25,6.25 -7.35,14.65 l 3.75,3.75 -3.75,3.75 q 1.1,8.4 7.35,14.65 6.25,6.25 14.65,7.35 l 3.75,-3.75 3.75,3.75 q 8.4,-1.1 14.65,-7.35 6.25,-6.25 7.35,-14.65 l -3.75,-3.75 3.75,-3.75 q -1.1,-8.4 -7.35,-14.65 m 11.6,18.4 q 0,3.75 -0.8,7.2 -1.85,7.9 -8,14 -6.1,6.15 -14,8 l -7.2,0.8 -7.2,-0.8 q -7.9,-1.85 -14.05,-8 -6.1,-6.1 -7.95,-14 -0.8,-3.45 -0.8,-7.2 0,-3.75 0.8,-7.2 1.85,-7.9 7.95,-14.05 6.15,-6.1 14.05,-7.95 l 7.2,-0.8 7.2,0.8 q 7.9,1.85 14,7.95 6.15,6.15 8,14.05 0.8,3.45 0.8,7.2"
       id="path223"
       style="fill:#ffffff;fill-opacity:1" />
    <path
       stroke="none"
       fill="#333333"
       d="m 1060.5263,697.80702 v 4 h -18 v -4 h 18"
       id="path224"
       style="fill:#ffffff;fill-opacity:1" />
    <path
       stroke="none"
       fill="#333333"
       d="m 1080.5263,701.80702 v -4 h 18 v 4 h -18"
       id="path225"
       style="fill:#ffffff;fill-opacity:1" />
    <path
       stroke="none"
       fill="#333333"
       d="m 1068.5263,709.80702 h 4 v 18 h -4 v -18"
       id="path226"
       style="fill:#ffffff;fill-opacity:1" />
    <path
       stroke="none"
       fill="#333333"
       d="m 1072.5263,689.80702 h -4 v -18 h 4 v 18"
       id="path227"
       style="fill:#ffffff;fill-opacity:1" />
  </g>
</svg>
