<?xml version="1.0" encoding="UTF-8" standalone="no"?>
<svg
   version="1.1"
   id="svg344"
   width="56"
   height="46"
   xmlns="http://www.w3.org/2000/svg"
   xmlns:svg="http://www.w3.org/2000/svg">
  <defs
     id="defs1" />
  <path
     stroke="none"
     fill="#333333"
     d="M 0,46 7.1,35 10.55,37.05 8,42 h 6 v 4 H 0 M 28,0 34.55,11 31.1,13.05 28,7.9 24.95,13.05 21.5,11 28,0 m 2,30 q 0,0.65 -0.35,1.15 L 29.4,31.4 Q 28.85,32 28,32 27.15,32 26.55,31.4 l -0.2,-0.25 Q 26,30.65 26,30 26,29.15 26.55,28.55 27.15,28 28,28 28.85,28 29.4,28.55 30,29.15 30,30 M 56,46 H 42 v -4 h 6 L 45.5,37.05 48.95,35 56,46"
     id="path250"
     style="fill:#ffffff;fill-opacity:1" />
</svg>
