<?xml version="1.0" encoding="UTF-8" standalone="no"?>
<svg
   version="1.1"
   id="svg344"
   width="64"
   height="40"
   xmlns="http://www.w3.org/2000/svg"
   xmlns:svg="http://www.w3.org/2000/svg">
  <defs
     id="defs1" />
  <g
     id="g17"
     transform="translate(-1245.5263,-817.80702)"
     style="fill:#ffffff;fill-opacity:1">
    <path
       stroke="none"
       fill="#333333"
       d="m 1309.5263,817.80702 v 4 h -20 v -4 h 20 m -16,12 h 16 v 4 h -16 v -4 m 16,24 v 4 h -8 v -4 h 8 m 0,-12 v 4 h -12 v -4 h 12"
       id="path323"
       style="fill:#ffffff;fill-opacity:1" />
    <path
       stroke="none"
       fill="#333333"
       d="m 1245.5263,817.80702 h 20 v 4 h -20 v -4 m 16,12 v 4 h -16 v -4 h 16 m -16,12 h 12 v 4 h -12 v -4 m 0,12 h 8 v 4 h -8 v -4"
       id="path324"
       style="fill:#ffffff;fill-opacity:1" />
    <path
       stroke="none"
       fill="#333333"
       d="m 1279.5263,837.80702 q 0,0.85 -0.6,1.4 -0.55,0.6 -1.4,0.6 -0.85,0 -1.45,-0.6 -0.55,-0.55 -0.55,-1.4 0,-0.85 0.55,-1.45 0.6,-0.55 1.45,-0.55 0.85,0 1.4,0.55 0.6,0.6 0.6,1.45"
       id="path325"
       style="fill:#ffffff;fill-opacity:1" />
    <path
       stroke="none"
       fill="#333333"
       d="m 1276.5263,827.80702 h 2 v 6 h -2 v -6"
       id="path326"
       style="fill:#ffffff;fill-opacity:1" />
    <path
       stroke="none"
       fill="#333333"
       d="m 1276.5263,841.80702 h 2 v 6 h -2 v -6"
       id="path327"
       style="fill:#ffffff;fill-opacity:1" />
    <path
       stroke="none"
       fill="#333333"
       d="m 1267.5263,838.80702 v -2 h 6 v 2 h -6"
       id="path328"
       style="fill:#ffffff;fill-opacity:1" />
    <path
       stroke="none"
       fill="#333333"
       d="m 1281.5263,838.80702 v -2 h 6 v 2 h -6"
       id="path329"
       style="fill:#ffffff;fill-opacity:1" />
  </g>
</svg>
