<?xml version="1.0" encoding="UTF-8" standalone="no"?>
<svg
   version="1.1"
   id="svg344"
   width="48"
   height="48"
   xmlns="http://www.w3.org/2000/svg"
   xmlns:svg="http://www.w3.org/2000/svg">
  <defs
     id="defs1" />
  <path
     stroke="none"
     fill="#333333"
     d="m 26,24 q 0,0.85 -0.6,1.4 Q 24.85,26 24,26 23.15,26 22.55,25.4 22,24.85 22,24 22,23.15 22.55,22.55 23.15,22 24,22 24.85,22 25.4,22.55 26,23.15 26,24 M 23.95,2.85 20.4,6.4 19,5 l 5,-5 5,5 -1.45,1.45 -3.6,-3.6 m 21.2,21.2 -3.6,-3.6 L 43,19 l 5,5 -5,5 -1.4,-1.4 3.55,-3.55 M 36,20 h 2 v 8 h -2 v -8 m -26,0 h 2 v 8 h -2 v -8 m 14,25.2 3.6,-3.6 1.4,1.4 -5,5 -5,-5 1.4,-1.4 3.6,3.6 M 2.8,24 6.4,27.6 5,29 0,24 5,19 6.4,20.4 2.8,24"
     id="path293"
     style="fill:#ffffff;fill-opacity:1" />
</svg>
