<?xml version="1.0" encoding="UTF-8" standalone="no"?>
<svg
   version="1.1"
   id="svg344"
   width="64"
   height="64"
   xmlns="http://www.w3.org/2000/svg"
   xmlns:svg="http://www.w3.org/2000/svg">
  <defs
     id="defs1" />
  <g
     id="g348"
     transform="translate(-1107.5263,-322.80702)"
     style="fill:#ffffff;fill-opacity:1">
    <path
       stroke="none"
       fill="#333333"
       d="m 1149.5263,352.80702 h 22 v 4 h -22 v -4 m -8,-30 v 22 h -4 v -22 h 4 m -34,30 h 22 v 4 h -22 v -4 m 34,12 v 22 h -4 v -22 h 4"
       id="path100"
       style="fill:#ffffff;fill-opacity:1" />
    <path
       stroke="none"
       fill="#333333"
       d="m 1159.3263,335.00702 q -8.2,-8.2 -19.8,-8.2 -11.6,0 -19.8,8.15 l -0.05,0.05 q -8.15,8.2 -8.15,19.8 0,11.6 8.2,19.8 8.2,8.2 19.8,8.2 11.6,0 19.8,-8.2 8.2,-8.2 8.2,-19.8 0,-11.6 -8.2,-19.8 m 10.2,19.8 q 0,12.45 -8.8,21.2 -8.75,8.8 -21.2,8.8 -12.45,0 -21.25,-8.8 -8.75,-8.75 -8.75,-21.2 0,-12.45 8.75,-21.25 8.8,-8.75 21.25,-8.75 12.45,0 21.2,8.75 8.8,8.8 8.8,21.25"
       id="path101"
       style="fill:#ffffff;fill-opacity:1" />
    <path
       stroke="none"
       fill="#333333"
       d="m 1149.4263,344.90702 q -4.1,-4.1 -9.9,-4.1 -5.8,0 -9.9,4.05 l -0.05,0.05 q -4.05,4.1 -4.05,9.9 0,5.8 4.1,9.9 4.1,4.1 9.9,4.1 5.8,0 9.9,-4.1 4.1,-4.1 4.1,-9.9 0,-5.8 -4.1,-9.9 m 6.1,9.9 q 0,6.65 -4.7,11.3 -4.65,4.7 -11.3,4.7 -6.65,0 -11.35,-4.7 -4.65,-4.65 -4.65,-11.3 0,-6.65 4.65,-11.35 4.7,-4.65 11.35,-4.65 6.65,0 11.3,4.65 4.7,4.7 4.7,11.35"
       id="path102"
       style="fill:#ffffff;fill-opacity:1" />
  </g>
</svg>
