<?xml version="1.0" encoding="UTF-8" standalone="no"?>
<svg
   version="1.1"
   id="svg344"
   width="12"
   height="12"
   xmlns="http://www.w3.org/2000/svg"
   xmlns:svg="http://www.w3.org/2000/svg">
  <defs
     id="defs1" />
  <path
     stroke="none"
     fill="#333333"
     d="M 8.85,3.2 Q 7.65,2 6,2 4.35,2 3.2,3.2 2,4.35 2,6 2,7.65 3.2,8.85 4.35,10 6,10 7.65,10 8.85,8.85 10,7.65 10,6 10,4.35 8.85,3.2 M 12,6 Q 12,8.5 10.25,10.25 8.5,12 6,12 3.5,12 1.75,10.25 0,8.5 0,6 0,3.5 1.75,1.75 3.5,0 6,0 8.5,0 10.25,1.75 12,3.5 12,6"
     id="path164"
     style="fill:#ffffff;fill-opacity:1" />
</svg>
