<?xml version="1.0" encoding="UTF-8" standalone="no"?>
<svg
   version="1.1"
   id="svg344"
   width="64"
   height="64"
   xmlns="http://www.w3.org/2000/svg"
   xmlns:svg="http://www.w3.org/2000/svg">
  <defs
     id="defs1" />
  <g
     id="g11"
     transform="translate(-555.52632,-667.80702)"
     style="fill:#ffffff;fill-opacity:1">
    <path
       stroke="none"
       fill="#333333"
       d="m 589.52632,667.80702 v 22 h -4 v -22 h 4 m -34,30 h 22 v 4 h -22 v -4 m 42,0 h 22 v 4 h -22 v -4 m -8,12 v 22 h -4 v -22 h 4"
       id="path142"
       style="fill:#ffffff;fill-opacity:1" />
    <path
       stroke="none"
       fill="#333333"
       d="m 563.52632,671.80702 h 48 q 1.65,0 2.85,1.2 1.15,1.15 1.15,2.8 v 48 q 0,1.65 -1.15,2.8 -1.2,1.2 -2.85,1.2 h -48 q -1.65,0 -2.85,-1.2 -1.15,-1.15 -1.15,-2.8 v -48 q 0,-1.65 1.15,-2.8 1.2,-1.2 2.85,-1.2 m 0,52 h 48 v -48 h -48 v 48"
       id="path143"
       style="fill:#ffffff;fill-opacity:1" />
    <path
       stroke="none"
       fill="#333333"
       d="m 599.52632,699.80702 q 0,4.95 -3.55,8.45 -3.5,3.55 -8.45,3.55 -4.95,0 -8.5,-3.55 -3.5,-3.5 -3.5,-8.45 0,-4.95 3.5,-8.5 3.55,-3.5 8.5,-3.5 4.95,0 8.45,3.5 3.55,3.55 3.55,8.5 m -12,-8 q -3.3,0 -5.65,2.3 l -0.05,0.05 q -2.3,2.35 -2.3,5.65 0,3.3 2.35,5.65 2.35,2.35 5.65,2.35 3.3,0 5.6,-2.35 l 0.05,-0.05 q 2.35,-2.3 2.35,-5.6 0,-3.3 -2.35,-5.65 -2.35,-2.35 -5.65,-2.35"
       id="path144"
       style="fill:#ffffff;fill-opacity:1" />
  </g>
</svg>
