<?xml version="1.0" encoding="UTF-8" standalone="no"?>
<svg
   version="1.1"
   id="svg344"
   width="56"
   height="56"
   xmlns="http://www.w3.org/2000/svg"
   xmlns:svg="http://www.w3.org/2000/svg">
  <defs
     id="defs1" />
  <path
     stroke="none"
     fill="#333333"
     d="M 52,0 Q 53.65,0 54.85,1.2 56,2.35 56,4 V 20 H 52 V 4 H 36 V 0 H 52 M 30,0 V 14 H 26 V 0 h 4 M 56,30 H 42 v -4 h 14 v 4 M 4,0 H 20 V 4 H 4 V 20 H 0 V 4 Q 0,2.35 1.15,1.2 2.35,0 4,0 M 14,30 H 0 v -4 h 14 v 4 M 4,56 Q 2.35,56 1.15,54.8 0,53.65 0,52 V 36 h 4 v 16 h 16 v 4 H 4 M 30,42 V 56 H 26 V 42 h 4 m 26,10 q 0,1.65 -1.15,2.8 Q 53.65,56 52,56 H 36 V 52 H 52 V 36 h 4 v 16"
     id="path168"
     style="fill:#ffffff;fill-opacity:1" />
</svg>
