<?xml version="1.0" encoding="UTF-8" standalone="no"?>
<svg
   version="1.1"
   id="svg344"
   width="56"
   height="56"
   xmlns="http://www.w3.org/2000/svg"
   xmlns:svg="http://www.w3.org/2000/svg">
  <defs
     id="defs1" />
  <path
     stroke="none"
     fill="#333333"
     d="m 0,28 6,-6 2,2 -4,4 4,4 -2,2 -6,-6 m 56,0 -6,6 -2,-2 4,-4 -4,-4 2,-2 6,6 m -28,-2 2,2 -2,2 -2,-2 2,-2 M 28,0 34,6 32,8 28,4 24,8 22,6 28,0 m 0,56 -6,-6 2,-2 4,4 4,-4 2,2 -6,6"
     id="path179"
     style="fill:#ffffff;fill-opacity:1" />
</svg>
