<?xml version="1.0" encoding="UTF-8" standalone="no"?>
<svg
   version="1.1"
   id="svg344"
   width="60.000648"
   height="60.001324"
   xmlns="http://www.w3.org/2000/svg"
   xmlns:svg="http://www.w3.org/2000/svg">
  <defs
     id="defs1" />
  <path
     stroke="none"
     fill="#333333"
     d="m 42.750313,39.95 7.05,7.05 q 6.2,-7.2 6.25,-16.95 -0.05,-9.75 -6.3,-16.9 l -7,7 -2.85,-2.85 7,-7 q -7.15,-6.25 -16.9,-6.3 -9.74998,0.05 -16.89998,6.3 l 7,7 -2.85,2.85 -7,-7 q -6.2499997,7.15 -6.2999997,16.9 0.05,9.75 6.2499997,16.95 l 7.05,-7.05 2.85,2.85 -7.05,7.05 q 7.2,6.2 16.94998,6.25 9.75,-0.05 16.95,-6.25 l -7.05,-7.05 2.85,-2.85 m 11.3,11.3 -2.85,2.85 -1.45,-1.45 q -8.35,7.45 -19.75,7.35 -11.39998,0.1 -19.74998,-7.35 l -1.4499997,1.45 -2.85,-2.85 1.45,-1.45 Q 3.3333333e-4,41.5 3.3333333e-4,30 -0.04966667,18.65 7.4003333,10.3 l -1.45,-1.45 2.85,-2.85 1.4499997,1.45 q 8.3,-7.4 19.74998,-7.45 11.45,0.05 19.75,7.45 l 1.45,-1.45 2.85,2.85 -1.45,1.45 q 7.45,8.35 7.4,19.7 0,11.5 -7.4,19.8 l 1.45,1.45 M 32.000313,30 q 0,0.85 -0.6,1.4 -0.55,0.6 -1.4,0.6 -0.85,0 -1.45,-0.6 -0.54998,-0.55 -0.54998,-1.4 0,-0.85 0.54998,-1.45 0.6,-0.55 1.45,-0.55 0.85,0 1.4,0.55 0.6,0.6 0.6,1.45"
     id="path82"
     style="fill:#ffffff;fill-opacity:1" />
</svg>
