<?xml version="1.0" encoding="UTF-8" standalone="no"?>
<svg
   version="1.1"
   id="svg344"
   width="20"
   height="20"
   xmlns="http://www.w3.org/2000/svg"
   xmlns:svg="http://www.w3.org/2000/svg">
  <defs
     id="defs1" />
  <path
     stroke="none"
     fill="#333333"
     d="M 18,0 20,2 16,6 14,4 18,0 M 0,2 2,0 6,4 4,6 0,2 m 12,8 q 0,0.85 -0.6,1.4 Q 10.85,12 10,12 9.15,12 8.55,11.4 8,10.85 8,10 8,9.15 8.55,8.55 9.15,8 10,8 10.85,8 11.4,8.55 12,9.15 12,10 M 2,20 0,18 4,14 6,16 2,20 m 18,-2 -2,2 -4,-4 2,-2 4,4"
     id="path296"
     style="fill:#ffffff;fill-opacity:1" />
</svg>
