<?xml version="1.0" encoding="UTF-8" standalone="no"?>
<!-- Created with Inkscape (http://www.inkscape.org/) -->

<svg
   width="512mm"
   height="512mm"
   viewBox="0 0 512 512"
   version="1.1"
   id="svg1"
   xml:space="preserve"
   inkscape:version="1.4.4 (dcaf3e7, 2026-05-05)"
   sodipodi:docname="binary_icon_source.svg"
   xmlns:inkscape="http://www.inkscape.org/namespaces/inkscape"
   xmlns:sodipodi="http://sodipodi.sourceforge.net/DTD/sodipodi-0.dtd"
   xmlns="http://www.w3.org/2000/svg"
   xmlns:svg="http://www.w3.org/2000/svg"><sodipodi:namedview
     id="namedview1"
     pagecolor="#dcdcdc"
     bordercolor="#000000"
     borderopacity="0.25"
     inkscape:showpageshadow="2"
     inkscape:pageopacity="0.0"
     inkscape:pagecheckerboard="0"
     inkscape:deskcolor="#c0c0c0"
     inkscape:document-units="px"
     showguides="true"
     inkscape:zoom="0.25"
     inkscape:cx="-52"
     inkscape:cy="570"
     inkscape:window-width="1366"
     inkscape:window-height="715"
     inkscape:window-x="-8"
     inkscape:window-y="-8"
     inkscape:window-maximized="1"
     inkscape:current-layer="layer1" /><defs
     id="defs1" /><g
     inkscape:groupmode="layer"
     id="layer2"
     inkscape:label="example"
     sodipodi:insensitive="true"
     style="display:none"><path
       style="opacity:0.129268;fill:#d40000"
       d="m 236.31785,260.57215 c 0,-0.0205 0.53828,-1.17307 1.19618,-2.56117 0.6579,-1.38809 1.43895,-3.049 1.73566,-3.6909 l 0.53949,-1.16709 v -5.95132 -5.95131 l 0.22201,-0.20526 c 0.1221,-0.11289 2.46878,-2.50079 5.21483,-5.30643 l 4.99282,-5.10116 h 0.83883 0.83884 v 0.51152 c 0,0.28134 -0.0613,1.01424 -0.1362,1.62867 -0.11701,0.95976 -0.12028,1.19485 -0.0232,1.66864 0.087,0.42437 0.1186,2.02094 0.13725,6.92583 l 0.0242,6.37434 10.34945,-0.0315 c 10.72845,-0.0326 10.49769,-0.0258 12.00675,-0.35722 0.19904,-0.0437 0.25628,-0.0299 0.23436,0.0564 -0.016,0.0629 -2.98363,3.05751 -6.59485,6.65479 l -6.56584,6.54049 h -12.50532 c -6.87793,0 -12.50532,-0.0168 -12.50532,-0.0374 z m 31.34386,-6.57298 c 3.55289,-3.54255 6.41791,-6.42039 6.3667,-6.3952 -0.0512,0.0252 -0.5465,0.10609 -1.10066,0.1798 -0.87362,0.1162 -2.34646,0.13312 -11.07848,0.12725 -5.53899,-0.004 -10.0879,-0.0238 -10.10867,-0.0445 -0.0208,-0.0208 -0.0518,-2.84852 -0.069,-6.28387 -0.0205,-4.10306 -0.0649,-6.48772 -0.12935,-6.9503 -0.0812,-0.58266 -0.0735,-0.91875 0.0442,-1.94734 0.0783,-0.68372 0.14198,-1.38601 0.14153,-1.56063 l -8.1e-4,-0.3175 h -0.71077 -0.71076 l -4.78442,4.8895 c -2.63142,2.68922 -4.95953,5.05936 -5.17356,5.26696 l -0.38916,0.37746 v 5.94839 5.94838 l -1.00663,2.14082 c -0.55365,1.17745 -1.2809,2.71232 -1.61611,3.41082 -0.33521,0.6985 -0.64328,1.35573 -0.6846,1.4605 l -0.0751,0.1905 h 12.31294 12.31294 z m -1.0332,6.58233 c 0,-0.0291 2.97493,-3.47315 6.61095,-7.65357 6.59349,-7.58067 6.6129,-7.60195 7.34484,-8.05321 5.15363,-3.17733 8.60846,-8.54475 9.29201,-14.43607 l 0.13901,-1.19814 3.77198,-9.10167 c 2.07459,-5.00592 3.83668,-9.25407 3.91577,-9.44033 l 0.14378,-0.33867 0.52692,1.10067 c 2.64158,5.51797 3.51185,8.17556 4.11719,12.573 0.18446,1.33999 0.25821,5.40194 0.12478,6.87302 -0.49317,5.43753 -2.41452,10.68809 -5.67975,15.52131 -1.92284,2.84621 -5.00795,5.91381 -8.18579,8.13933 -4.83715,3.38757 -9.72333,5.2052 -15.68702,5.83546 -1.24487,0.13156 -6.43467,0.27582 -6.43467,0.17887 z m 1.24178,-14.42177 c -0.031,-0.031 -0.0564,-0.71126 -0.0564,-1.51158 v -1.45513 l -0.63938,-0.054 c -2.72009,-0.22993 -5.79277,-1.49186 -8.04637,-3.30459 -0.92461,-0.74373 -2.23928,-2.13661 -2.93315,-3.10765 -0.70864,-0.9917 -1.66381,-2.8825 -2.04958,-4.05722 -0.34661,-1.05551 -0.62695,-2.38431 -0.69835,-3.31027 l -0.0516,-0.66907 h -1.51145 -1.51145 v -0.97366 -0.97367 h 1.51232 1.51232 l 0.0589,-0.65617 c 0.20658,-2.30207 1.30347,-5.19674 2.73509,-7.21783 0.738,-1.04187 2.62507,-2.9284 3.66406,-3.66302 1.09495,-0.77418 2.87067,-1.66146 4.17311,-2.08519 1.03378,-0.33633 2.72786,-0.68646 3.32138,-0.68646 0.56617,0 0.54884,0.0511 0.54884,-1.61772 v -1.51494 h 0.92942 0.92943 l 0.0231,1.54516 0.0231,1.54517 0.29633,0.0228 c 0.71265,0.0547 2.12687,0.30636 2.79147,0.49668 5.04007,1.44333 8.89834,5.11756 10.54331,10.04038 0.36788,1.10096 0.71989,2.79325 0.71989,3.46093 v 0.33025 h 1.524 1.524 v 0.97367 0.97366 h -1.48005 c -1.6948,0 -1.51182,-0.10582 -1.61035,0.93134 -0.2159,2.27247 -1.28844,5.06559 -2.73097,7.112 -0.73174,1.03805 -2.61562,2.92335 -3.6613,3.66405 -2.00695,1.42161 -4.55374,2.39933 -7.06966,2.71405 l -0.84667,0.10592 -0.0231,1.49932 -0.0231,1.49932 h -0.91527 c -0.5034,0 -0.94067,-0.0254 -0.97171,-0.0564 z m 1.65605,-1.65607 0.0232,-1.45852 0.93133,-0.10781 c 0.95544,-0.1106 2.68275,-0.5026 3.32319,-0.75417 l 0.35981,-0.14134 v -0.83082 -0.83081 l -0.39166,0.16789 c -0.83614,0.35841 -2.45681,0.73796 -3.77817,0.88483 l -0.48683,0.0541 v -2.92709 -2.92709 h -0.71967 -0.71967 v 2.9252 2.92521 l -0.52916,-0.0546 c -5.81058,-0.5999 -10.5724,-4.68586 -12.0064,-10.3023 -0.20119,-0.78796 -0.44404,-2.49556 -0.37159,-2.61278 0.0273,-0.0442 1.26106,-0.0774 2.87915,-0.0774 h 2.83134 v -0.71966 -0.71967 h -2.83134 c -1.55723,0 -2.84852,-0.0286 -2.86952,-0.0635 -0.0723,-0.12027 0.18805,-1.79682 0.40732,-2.62269 1.25103,-4.71185 4.9458,-8.43701 9.63536,-9.71459 0.68505,-0.18663 2.28444,-0.46258 2.70668,-0.467 0.13819,-0.001 0.14816,0.18936 0.14816,2.83478 v 2.83633 h 0.71967 0.71967 v -2.84307 -2.84307 l 0.5715,0.0566 c 0.92398,0.0914 2.20122,0.36863 3.13969,0.68137 0.48117,0.16035 0.89212,0.29155 0.91323,0.29155 0.0211,0 0.0275,-0.36793 0.0141,-0.81762 l -0.0242,-0.81761 -0.45201,-0.15345 c -0.87497,-0.29704 -2.183,-0.58443 -3.14632,-0.6913 l -0.97367,-0.10801 -0.0231,-1.54234 -0.0231,-1.54234 h -0.71776 -0.71776 v 1.55376 1.55376 l -0.70076,0.0494 c -2.38452,0.16828 -5.31896,1.25431 -7.42724,2.74881 -1.03272,0.73208 -2.84481,2.54416 -3.57688,3.57689 -1.4732,2.07823 -2.51244,4.85759 -2.75424,7.366 l -0.0612,0.635 -1.50283,0.0231 -1.50284,0.0231 v 0.71576 0.71576 l 1.50284,0.0231 1.50283,0.0231 0.0622,0.71966 c 0.15942,1.84577 0.69952,3.70542 1.58952,5.473 1.50727,2.9935 3.86335,5.31887 6.89965,6.80973 1.6498,0.81008 3.60396,1.35884 5.31284,1.49193 l 0.65616,0.0511 v 1.46911 1.46912 h 0.71767 0.71767 z m 5.1455,-3.45215 c 0,-0.508 -0.0339,-0.84667 -0.0847,-0.84667 -0.0508,0 -0.0847,0.33867 -0.0847,0.84667 0,0.508 0.0339,0.84666 0.0847,0.84666 0.0508,0 0.0847,-0.33866 0.0847,-0.84666 z m -6.77333,-2.70934 v -2.87866 h 0.93133 0.93134 v 2.89035 2.89036 l 0.5715,-0.0581 c 3.82273,-0.38871 7.50491,-2.64965 9.70336,-5.95807 1.13879,-1.71376 1.98531,-4.04008 2.14027,-5.8817 l 0.0552,-0.65617 h -2.8485 -2.84851 v -0.97366 -0.97367 h 2.83633 2.83634 v -0.23908 c 0,-1.05673 -0.62913,-3.23295 -1.36276,-4.71392 -0.66406,-1.34054 -1.44499,-2.42282 -2.53387,-3.51171 -1.08888,-1.08888 -2.17117,-1.8698 -3.51171,-2.53387 -1.50742,-0.74673 -3.65744,-1.36275 -4.75625,-1.36275 h -0.28141 v 2.794 2.794 h -0.93134 -0.93133 v -2.794 -2.794 h -0.32758 c -1.5631,0 -4.35601,0.9656 -6.1502,2.12633 -3.27654,2.11972 -5.6254,5.91429 -6.02449,9.7325 l -0.0525,0.5025 h 2.8484 2.84839 v 0.97367 0.97366 h -2.84849 -2.84849 l 0.0562,0.60436 c 0.34726,3.73642 2.56291,7.41163 5.80822,9.63439 1.86149,1.27496 4.53719,2.23997 6.33076,2.28324 l 0.35983,0.009 z m 0.42333,-8.98628 c -0.72704,-0.21445 -1.19743,-0.86199 -1.19743,-1.6484 0,-1.10443 0.99471,-1.89373 2.06346,-1.63734 0.94479,0.22665 1.50601,1.16367 1.25508,2.09553 -0.10594,0.39344 -0.49943,0.89297 -0.84362,1.07096 -0.31666,0.16375 -0.93193,0.22118 -1.27749,0.11925 z m 1.37492,-0.43147 c 0.77954,-0.59458 0.7805,-1.82051 0.002,-2.41439 -0.42649,-0.3253 -1.1474,-0.36738 -1.63161,-0.0952 -0.99858,0.56123 -1.01622,1.97775 -0.0322,2.58804 0.46004,0.28532 1.23287,0.24886 1.66195,-0.0784 z m 4.97508,-14.37358 c 0,-0.508 -0.0339,-0.84667 -0.0847,-0.84667 -0.0508,0 -0.0847,0.33867 -0.0847,0.84667 0,0.508 0.0339,0.84667 0.0847,0.84667 0.0508,0 0.0847,-0.33867 0.0847,-0.84667 z m -34.88361,3.4572 -9.5e-4,-14.5062 -1.84655,-3.556 -1.84654,-3.556 17.40499,-0.0759 c 18.29489,-0.0798 19.57906,-0.0633 21.90979,0.28228 2.23178,0.33088 5.0449,1.06844 7.00987,1.83788 1.36675,0.53519 4.37156,1.98497 4.33607,2.0921 -0.0132,0.0398 -4.07402,1.80191 -9.0241,3.91583 l -9.00015,3.84351 h -8.41707 -8.41708 l -0.002,5.99016 -0.002,5.99017 -3.53248,3.66353 c -1.94286,2.01495 -4.66595,4.77083 -6.05131,6.1242 l -2.51883,2.46066 z m 8.31987,5.9212 3.61993,-3.74807 -0.0216,-6.03252 -0.0216,-6.03253 8.46848,3e-5 8.46848,2e-5 2.74985,-1.17959 2.74986,-1.17959 0.0219,-4.56678 0.0219,-4.56679 -0.86856,-0.0697 c -0.76718,-0.0615 -36.81187,-0.0564 -36.87811,0.005 -0.0144,0.0134 0.77614,1.56584 1.75683,3.44981 l 1.78306,3.42541 v 14.32841 14.32841 l 2.26483,-2.20687 c 1.24566,-1.21378 3.8938,-3.8935 5.88476,-5.95493 z m 26.56374,-22.79807 c 0,-2.90688 -0.0293,-4.445 -0.0847,-4.445 -0.0554,0 -0.0847,1.53812 -0.0847,4.445 0,2.90689 0.0293,4.445 0.0847,4.445 0.0554,0 0.0847,-1.53811 0.0847,-4.445 z m 15.12117,23.64317 c -0.84458,-4.30308 -2.50263,-7.5532 -5.33904,-10.46559 -2.82727,-2.90299 -6.07804,-4.71698 -9.98152,-5.56987 -0.59016,-0.12895 -1.06097,-0.2706 -1.04624,-0.31479 0.026,-0.0781 27.32359,-11.85257 27.36697,-11.80439 0.0217,0.0241 -2.11923,5.65533 -4.37085,11.49647 -0.65519,1.69969 -2.37571,6.18596 -3.82339,9.9695 -1.44768,3.78355 -2.66283,6.87917 -2.70034,6.87917 -0.0375,0 -0.085,-0.0857 -0.10559,-0.1905 z"
       id="path1" /></g><g
     inkscape:label="launcher"
     inkscape:groupmode="layer"
     id="layer1"
     inkscape:export-filename="C:\Users\Administrator\Pictures\launcher.png"
     inkscape:export-xdpi="96"
     inkscape:export-ydpi="96"><g
       id="g132"><g
         id="g131"
         transform="translate(0.43640976,0.3776843)"
         style="stroke:#000000;stroke-opacity:1;stroke-width:0.66145831;stroke-dasharray:none"><g
           id="g130"
           transform="matrix(1.837567,0,0,1.837567,-346.62618,-238.81651)"
           style="stroke:#000000;stroke-opacity:1;stroke-width:0.35996419;stroke-dasharray:none"><path
             style="opacity:1;fill:none;stroke:#000000;stroke-width:0.35996419;stroke-dasharray:none;stroke-opacity:1"
             d="m 239.78989,232.51426 12.10262,-12.24839"
             id="path2" /><path
             style="fill:none;stroke:#000000;stroke-width:0.35996419;stroke-dasharray:none;stroke-opacity:1"
             d="m 261.36564,260.52464 h 2.07083"
             id="path5-9" /><path
             d="m 264.05984,259.88852 12.27522,-12.27573 a 20.194681,20.194681 0 0 1 -2.7311,0.73277 l -11.1528,11.15281 a 32.147762,32.147762 0 0 0 1.60868,0.39015 z"
             style="opacity:0.52439;fill:#ffaaaa;fill-opacity:0.898039;stroke:#000000;stroke-width:0.35996419;stroke-dasharray:none;stroke-opacity:1"
             id="path13" /><path
             d="m 300.97594,196.6252 -11.56002,5.42809 c 0,0 -5.2e-4,0 -5.2e-4,0 l -14.88591,6.99028 c 4.28226,0.49768 7.8601,2.23432 10.73268,5.2095 2.53344,2.6007 4.14458,5.75621 4.83381,9.4666 l 6.11229,-15.22129 z"
             style="opacity:1;fill:#666666;fill-opacity:1;stroke:#000000;stroke-width:0.35996419;stroke-dasharray:none;stroke-opacity:1"
             id="path25" /><path
             d="m 252.6254,226.1681 -12.7155,12.71602 0.0486,13.96349 -3.50263,7.6047 h 25.05532 l 13.25242,-13.25294 c -0.93262,0.11896 -1.89925,0.17881 -2.89956,0.17881 H 252.6254 Z"
             style="font-weight:bold;font-size:77.8923px;font-family:'Humanst521 BT';-inkscape-font-specification:'Humanst521 BT, Bold';fill:#666666;fill-opacity:1;stroke:#000000;stroke-width:0.35996419;stroke-dasharray:none;stroke-opacity:1"
             id="path22" /><path
             d="m 236.45584,195.81957 3.33158,7.73286 0.11576,33.33956 12.72222,-12.72222 V 208.8937 h 18.00045 l 17.03669,-8.00002 c -2.51995,-1.54982 -5.21363,-2.71754 -8.08065,-3.50367 -3.81917,-1.04719 -9.19363,-1.57044 -16.12356,-1.57044 z"
             style="font-weight:bold;font-size:77.8923px;font-family:'Humanst521 BT';-inkscape-font-specification:'Humanst521 BT, Bold';opacity:1;fill:#08a9e4;fill-opacity:1;stroke:#000000;stroke-width:0.35996419;stroke-dasharray:none;stroke-opacity:1"
             id="path30" /><path
             d="m 297.22113,209.87246 -6.77375,16.86873 c 0.0233,0.4501 0.0351,0.90734 0.0351,1.37149 0,5.66715 -1.74025,10.3023 -5.22035,13.90613 -2.24456,2.32437 -4.91898,3.89295 -8.0238,4.70514 l -13.72681,13.72681 c 6.56101,-0.002 11.52251,-0.36999 14.86937,-1.10691 3.35717,-0.77 6.42179,-2.03282 9.19376,-3.7884 4.89715,-3.14157 8.639,-7.05313 11.22618,-11.73468 2.58717,-4.71235 3.8809,-9.94854 3.8809,-15.70809 0,-5.26675 -1.06273,-10.05616 -3.18791,-14.36811 -0.66081,-1.35034 -1.41841,-2.6409 -2.27273,-3.87211 z"
             style="font-weight:bold;font-size:77.8923px;font-family:'Humanst521 BT';-inkscape-font-specification:'Humanst521 BT, Bold';opacity:1;fill:#08a9e4;fill-opacity:1;stroke:#000000;stroke-width:0.35996419;stroke-dasharray:none;stroke-opacity:1"
             id="path29" /><g
             id="g34"
             transform="matrix(0.84909276,0,0,0.84909276,42.714608,34.311565)"
             style="fill:#666666;fill-opacity:1;stroke-width:0.42393977;stroke-dasharray:none;stroke:#000000;stroke-opacity:1"><path
               d="m 267.7175,209.43372 v 2.67167 a 15.748253,15.748253 0 0 0 -14.52624,14.52625 h -2.67167 v 2.35644 h 2.67167 a 15.748253,15.748253 0 0 0 14.52624,14.52625 v 2.67167 h 2.35645 v -2.67167 a 15.748253,15.748253 0 0 0 14.52624,-14.52625 h 2.67167 v -2.35644 h -2.67167 a 15.748253,15.748253 0 0 0 -14.52624,-14.52625 v -2.67167 z m 0,5.30562 v 5.25291 h 2.35645 v -5.25291 a 13.123544,13.123544 0 0 1 11.89229,11.8923 h -5.25291 v 2.35644 h 5.25291 a 13.123544,13.123544 0 0 1 -11.89229,11.8923 v -5.25291 h -2.35645 v 5.25291 a 13.123544,13.123544 0 0 1 -11.8923,-11.8923 h 5.25291 v -2.35644 h -5.25291 a 13.123544,13.123544 0 0 1 11.8923,-11.8923 z"
               style="fill:#666666;fill-opacity:1;stroke:#000000;stroke-width:0.42393977;stroke-dasharray:none;stroke-opacity:1"
               id="path34" /><circle
               style="opacity:1;fill:#666666;fill-opacity:1;stroke:#000000;stroke-width:0.42393977;stroke-dasharray:none;stroke-opacity:1"
               id="path33"
               cx="268.89572"
               cy="227.80986"
               r="1.829687" /></g></g></g><rect
         style="opacity:1;fill:none;fill-opacity:1;fill-rule:nonzero;stroke:none;stroke-width:0.11591;stroke-dasharray:none"
         id="rect130"
         width="135.35075"
         height="135.35075"
         x="81.417328"
         y="113.16733" /></g></g></svg>
