<svg viewBox="0 0 32 32" fill="currentColor" width="1024" height="1024" xmlns="http://www.w3.org/2000/svg" xmlns:xlink="http://www.w3.org/1999/xlink">
    <path d="M29.7425 13.4013a1 1 0 0 0-0.4862-0.6751l-3.7288-2.125-0.015-4.2025a1 1 0 0 0-0.3537-0.76 13.9888 13.9888 0 0 0-4.59-2.5837 1 1 0 0 0-0.8075 0.0737L16 5.2313 12.235 3.125a1 1 0 0 0-0.8087-0.075 13.99 13.99 0 0 0-4.585 2.5938 1 1 0 0 0-0.3538 0.7587l-0.0187 4.2063-3.7288 2.125a1 1 0 0 0-0.4862 0.675 13.3088 13.3088 0 0 0 0 5.195 1 1 0 0 0 0.4862 0.675l3.7288 2.125 0.015 4.2037a1 1 0 0 0 0.3537 0.76 13.9888 13.9888 0 0 0 4.59 2.5838 1 1 0 0 0 0.8075-0.0738L16 26.7688l3.765 2.1062A0.9888 0.9888 0 0 0 20.2525 29a1.0113 1.0113 0 0 0 0.3213-0.0525 14.0125 14.0125 0 0 0 4.585-2.5912 1 1 0 0 0 0.3537-0.7588l0.0188-4.2062 3.7287-2.125a1 1 0 0 0 0.4863-0.675 13.3088 13.3088 0 0 0-38e-4-5.19zM16 21a5 5 0 1 1 5-5 5 5 0 0 1-5 5z" />
</svg>