<svg viewBox="0 0 32 32" fill="currentColor" width="1024" height="1024" xmlns="http://www.w3.org/2000/svg" xmlns:xlink="http://www.w3.org/1999/xlink">
    <path d="M25.0963 6.7363A12.9088 12.9088 0 0 0 16 3h-0.1337A13 13 0 0 0 3 16c0 5.375 3.3225 9.8825 8.67 11.7713A4 4 0 0 0 17 24a2 2 0 0 1 2-2h5.7763a3.9763 3.9763 0 0 0 3.9-3.11 13.0538 13.0538 0 0 0 0.3237-3 12.91 12.91 0 0 0-3.9037-9.1537zM10.5 21a1.5 1.5 0 1 1 1.5-1.5 1.5 1.5 0 0 1-1.5 1.5zM10.5 14a1.5 1.5 0 1 1 1.5-1.5 1.5 1.5 0 0 1-1.5 1.5zM16 11a1.5 1.5 0 1 1 1.5-1.5A1.5 1.5 0 0 1 16 11zM21.5 14a1.5 1.5 0 1 1 1.5-1.5 1.5 1.5 0 0 1-1.5 1.5z" />
</svg>