<svg viewBox="0 0 32 32" fill="currentColor" width="1024" height="1024" xmlns="http://www.w3.org/2000/svg" xmlns:xlink="http://www.w3.org/1999/xlink">
    <path d="M28 16a1 1 0 0 1-1 1H13a1 1 0 0 1 0-2h14a1 1 0 0 1 1 1zM13 9h14a1 1 0 0 0 0-2H13a1 1 0 0 0 0 2zM27 23H13a1 1 0 0 0 0 2h14a1 1 0 0 0 0-2zM5.4475 6.895 6 6.6175V13a1 1 0 0 0 2 0V5a1 1 0 0 0-1.4475-0.895l-2 1a1.0006 1.0006 0 0 0 0.895 1.79zM9.9713 19.59a2.9663 2.9663 0 0 0-1.2-1.9937 3.1075 3.1075 0 0 0-4.2638 0.5875 2.9538 2.9538 0 0 0-0.4462 0.8075 1 1 0 1 0 1.875 0.6837 0.98 0.98 0 0 1 0.1475-0.2662 1.095 1.095 0 0 1 1.5-0.1988 0.9888 0.9888 0 0 1 0.4075 0.665 0.955 0.955 0 0 1-0.1963 0.7225 0.125 0.125 0 0 0-0.01 0.0138l-3.5862 4.79A1 1 0 0 0 5 27h4a1 1 0 0 0 0-2H7l2.385-3.1912A2.9338 2.9338 0 0 0 9.9713 19.59z" />
</svg>