<svg viewBox="0 0 32 32" fill="currentColor" width="1024" height="1024" xmlns="http://www.w3.org/2000/svg" xmlns:xlink="http://www.w3.org/1999/xlink">
    <path d="M30.9138 15.595c-0.0438-0.0987-1.1025-2.4475-3.4563-4.8012C24.3213 7.6575 20.36 6 16 6S7.6788 7.6575 4.5425 10.7938C2.1888 13.1475 1.125 15.5 1.0863 15.595a1 1 0 0 0 0 0.8125c0.0437 0.0987 1.1024 2.4462 3.4562 4.8C7.6788 24.3425 11.64 26 16 26s8.3213-1.6575 11.4575-4.7925c2.3538-2.3538 3.4125-4.7012 3.4563-4.8a1 1 0 0 0 0-0.8125zM16 21a5 5 0 1 1 5-5 5 5 0 0 1-5 5z" />
</svg>