<svg viewBox="0 0 32 32" fill="currentColor" width="32" height="32" xmlns="http://www.w3.org/2000/svg" xmlns:xlink="http://www.w3.org/1999/xlink">
    <path d="M29.565 23.3863 11.69 11.1525a4.5 4.5 0 1 0-1.7975 2.1588l2.6738 2.7112-2.6725 2.67v0a4.4887 4.4887 0 1 0 1.7975 2.1588L15.055 18.55l6.195 6.28a4.0325 4.0325 0 0 0 2.8375 1.1713 3.94 3.94 0 0 0 0.5138-0.0338h0.035l4.5337-0.7638a1 1 0 0 0 0.3988-1.8125zM9.2675 11.2613A2.5 2.5 0 1 1 10 9.5a2.5 2.5 0 0 1-0.7325 1.7663zM9.2675 24.2613A2.5 2.5 0 1 1 10 22.5a2.5 2.5 0 0 1-0.7325 1.7688zM16.8925 11.5738l4.35-4.3988a4.0238 4.0238 0 0 1 3.355-1.1425h0.035l4.5 0.7588a1.0263 1.0263 0 0 1 0.7613 0.5525 1 1 0 0 1-0.3338 1.265L20.8188 14.59a0.5 0.5 0 0 1-0.5638 0l-3.2887-2.25a0.5 0.5 0 0 1-0.0688-0.7587z" />
</svg>