<svg viewBox="0 0 32 32" fill="currentColor" width="32" height="32" xmlns="http://www.w3.org/2000/svg" xmlns:xlink="http://www.w3.org/1999/xlink">
    <path d="M15 24.9425V28.41a0.5 0.5 0 0 1-0.5575 0.5 13.0275 13.0275 0 0 1-11.35-11.35 0.5 0.5 0 0 1 0.5-0.5575h3.465A9.0138 9.0138 0 0 0 15 24.9425zM22.9275 17H17v5.9275A7.0138 7.0138 0 0 0 22.9275 17zM17 9.0725V15h5.9275A7.0138 7.0138 0 0 0 17 9.0725zM28.41 17h-3.4675A9.0138 9.0138 0 0 1 17 24.9425V28.41a0.5 0.5 0 0 0 0.5575 0.5 13.0275 13.0275 0 0 0 11.35-11.35A0.5 0.5 0 0 0 28.41 17zM24.9425 15H28.41a0.5 0.5 0 0 0 0.5-0.5575 13.0275 13.0275 0 0 0-11.35-11.35 0.5 0.5 0 0 0-0.5575 0.5v3.465A9.0138 9.0138 0 0 1 24.9425 15zM14.4425 3.0925a13.0275 13.0275 0 0 0-11.35 11.35 0.5 0.5 0 0 0 0.5 0.5575h3.465A9.0138 9.0138 0 0 1 15 7.0575V3.59a0.5 0.5 0 0 0-0.5575-0.4975zM9.0725 15H15V9.0725A7.0138 7.0138 0 0 0 9.0725 15zM15 22.9275V17H9.0725A7.0138 7.0138 0 0 0 15 22.9275z" />
</svg>