<svg viewBox="0 0 32 32" fill="currentColor" width="32" height="32" xmlns="http://www.w3.org/2000/svg" xmlns:xlink="http://www.w3.org/1999/xlink">
    <path d="M30.93 21.7188a0.085 0.085 0 0 0 0-0.0175L28.8813 11.18c0-75e-4 0-0.015 0-0.0225A7.51 7.51 0 0 0 21.5 5H10.4863a7.485 7.485 0 0 0-7.375 6.19L1.0725 21.7013a0.085 0.085 0 0 0 0 0.0175 4.5 4.5 0 0 0 7.6125 3.9637l0.0438-0.0462L13.69 20h4.625l4.9638 5.6363c0.0137 0.0162 0.0287 0.0312 0.0437 0.0462A4.51 4.51 0 0 0 26.5 27a4.5 4.5 0 0 0 4.43-5.2812zM13 14h-1v1a1 1 0 0 1-2 0v-1H9a1 1 0 0 1 0-2h1v-1a1 1 0 0 1 2 0v1h1a1 1 0 0 1 0 2zM18 13a1 1 0 0 1 1-1h3a1 1 0 0 1 0 2h-3a1 1 0 0 1-1-1zM28.5463 23.9338a2.48 2.48 0 0 1-1.6125 1.0287 2.5113 2.5113 0 0 1-2.1838-0.6737L20.975 20H21.5a7.5 7.5 0 0 0 6.375-3.5475l1.0925 5.625a2.4775 2.4775 0 0 1-0.4212 1.8563z" />
</svg>