<svg viewBox="0 0 32 32" fill="currentColor" width="1024" height="1024" xmlns="http://www.w3.org/2000/svg" xmlns:xlink="http://www.w3.org/1999/xlink">
    <path d="M19 7v15a1 1 0 0 1-2 0v-6.5H6V22a1 1 0 0 1-2 0V7a1 1 0 0 1 2 0v6.5h11V7a1 1 0 0 1 2 0zM26.5 18a4.85 4.85 0 0 0-1.1762 0.1425L25.8475 15H30a1 1 0 0 0 0-2h-5a1 1 0 0 0-0.9862 0.835l-1 6a1 1 0 0 0 1.7 0.865A2.4663 2.4663 0 0 1 26.5 20a2.5 2.5 0 0 1 0 5 2.4663 2.4663 0 0 1-1.7862-0.7 1 1 0 1 0-1.4275 1.4A4.4425 4.4425 0 0 0 26.5 27a4.5 4.5 0 0 0 0-9z" />
</svg>