<svg viewBox="0 0 32 32" fill="currentColor" width="1024" height="1024" xmlns="http://www.w3.org/2000/svg" xmlns:xlink="http://www.w3.org/1999/xlink">
    <path d="M28 16a1 1 0 0 1-1 1h-5.0087C23.14 17.8888 24 19.15 24 21c0 1.6675-0.875 3.2125-2.4687 4.3488C20.0413 26.4138 18.0763 27 16 27s-4.0412-0.5862-5.5312-1.6512C8.875 24.2125 8 22.6675 8 21a1 1 0 0 1 2 0c0 2.1688 2.75 4 6 4s6-1.8312 6-4c0-1.8562-1.3175-2.9475-4.8462-4H5a1 1 0 0 1 0-2h22a1 1 0 0 1 1 1zM9.5413 13a1 1 0 0 0 0.9512-1.3112A2.1625 2.1625 0 0 1 10.3888 11c0-2.28 2.4125-4 5.6112-4 2.355 0 4.27 0.9275 5.125 2.4813a1 1 0 0 0 1.75-0.9626C21.6663 6.315 19.0963 5 16 5c-4.3387 0-7.6112 2.5788-7.6112 6a4.2162 4.2162 0 0 0 0.2025 1.3113A1 1 0 0 0 9.5413 13z" />
</svg>