<svg viewBox="0 0 32 32" fill="currentColor" width="1024" height="1024" xmlns="http://www.w3.org/2000/svg" xmlns:xlink="http://www.w3.org/1999/xlink">
    <path d="M7.2925 12.7075l-4-4a1 1 0 0 1 0-1.415l4-4a1.0006 1.0006 0 0 1 1.415 1.415L5.4138 8l3.2937 3.2925a1.0006 1.0006 0 0 1-1.415 1.415zM12.2925 12.7075a1 1 0 0 0 1.415 0l4-4a1 1 0 0 0 0-1.415l-4-4a1.0006 1.0006 0 0 0-1.415 1.415L15.5863 8l-3.2938 3.2925a1 1 0 0 0 0 1.415zM25 5h-3a1 1 0 0 0 0 2h3v18H7v-8a1 1 0 0 0-2 0v8a2 2 0 0 0 2 2h18a2 2 0 0 0 2-2V7a2 2 0 0 0-2-2z" />
</svg>