<svg viewBox="0 0 24 24" fill="currentColor" width="1024" height="1024" xmlns="http://www.w3.org/2000/svg" xmlns:xlink="http://www.w3.org/1999/xlink">
    <path d="M8.123 8e-3a0.431 0.431 0 0 0-0.512 0.42v9.746L4.104 6.666a0.432 0.432 0 0 0-0.66 0.064 0.428 0.428 0 0 0-0.071 0.239v10.064a2.387 2.387 0 0 0 0.701 1.694l4.565 4.57A2.4 2.4 0 0 0 10.332 24h3.34c0.635 0 1.242-0.252 1.691-0.701l4.565-4.572a2.394 2.394 0 0 0 0.699-1.694V13.41a2.39 2.39 0 0 0-0.7-1.693L8.343 0.125a0.427 0.427 0 0 0-0.22-0.117zM9.646 12.51a0.719 0.719 0 0 1 0.508 0.21l1.848 1.85 1.844-1.85a0.714 0.714 0 0 1 1.015 0l1.32 1.321a0.724 0.724 0 0 1 0.212 0.508v1.406a0.72 0.72 0 0 1-0.21 0.508l-3.68 3.7a0.72 0.72 0 0 1-1.019 0l-3.668-3.7a0.716 0.716 0 0 1-0.209-0.506v-1.408a0.71 0.71 0 0 1 0.211-0.506l1.32-1.322a0.713 0.713 0 0 1 0.508-0.211z" />
</svg>