<svg viewBox="0 0 32 32" fill="currentColor" width="1024" height="1024" xmlns="http://www.w3.org/2000/svg" xmlns:xlink="http://www.w3.org/1999/xlink">
    <path d="M29.4163 13l-6.6838 6.7063c0.57 1.5837 0.8063 4.2362-1.6487 7.5A1.9913 1.9913 0 0 1 19.625 28c-0.0475 0-0.0937 0-0.1412 0a2 2 0 0 1-1.415-0.5862l-6.0325-6.0388-5.3288 5.3325a1.0006 1.0006 0 0 1-1.415-1.415l5.3325-5.3287-6.0375-6.0375A2 2 0 0 1 4.75 10.9538C7.9275 8.39 10.9688 8.8937 12.3 9.3113L19 2.5875a2 2 0 0 1 2.8288 0l7.5862 7.585A2 2 0 0 1 29.4163 13z" />
</svg>