<svg viewBox="0 0 32 32" fill="currentColor" width="1024" height="1024" xmlns="http://www.w3.org/2000/svg" xmlns:xlink="http://www.w3.org/1999/xlink">
    <path d="M18 13V8a1 1 0 0 1 2 0v2.5863l5.2925-5.2938a1.0006 1.0006 0 0 1 1.415 1.415L21.4138 12H24a1 1 0 0 1 0 2h-5a1 1 0 0 1-1-1zM13 18H8a1 1 0 0 0 0 2h2.5863l-5.2938 5.2925a1.0006 1.0006 0 0 0 1.415 1.415L12 21.4138V24a1 1 0 0 0 2 0v-5a1 1 0 0 0-1-1zM21.4138 20H24a1 1 0 0 0 0-2h-5a1 1 0 0 0-1 1v5a1 1 0 0 0 2 0v-2.5862l5.2925 5.2937a1.0006 1.0006 0 0 0 1.415-1.415zM13 7a1 1 0 0 0-1 1v2.5863L6.7075 5.2925a1.0006 1.0006 0 0 0-1.415 1.415L10.5863 12H8a1 1 0 0 0 0 2h5a1 1 0 0 0 1-1V8a1 1 0 0 0-1-1z" />
</svg>