<svg viewBox="0 0 32 32" fill="currentColor" width="1024" height="1024" xmlns="http://www.w3.org/2000/svg" xmlns:xlink="http://www.w3.org/1999/xlink">
    <path d="M27 6v6a1 1 0 0 1-2 0V8.4138l-5.2925 5.2937a1.0006 1.0006 0 0 1-1.415-1.415L23.5863 7H20a1 1 0 0 1 0-2h6a1 1 0 0 1 1 1zM12.2925 18.2925 7 23.5863V20a1 1 0 0 0-2 0v6a1 1 0 0 0 1 1h6a1 1 0 0 0 0-2H8.4138l5.2937-5.2925a1.0006 1.0006 0 0 0-1.415-1.415zM26 19a1 1 0 0 0-1 1v3.5863l-5.2925-5.2938a1.0006 1.0006 0 0 0-1.415 1.415L23.5863 25H20a1 1 0 0 0 0 2h6a1 1 0 0 0 1-1v-6a1 1 0 0 0-1-1zM8.4138 7H12a1 1 0 0 0 0-2H6a1 1 0 0 0-1 1v6a1 1 0 0 0 2 0V8.4138l5.2925 5.2937a1.0006 1.0006 0 0 0 1.415-1.415z" />
</svg>